<?xml version="1.0" encoding="UTF-8" standalone="no"?>
<!DOCTYPE svg PUBLIC "-//W3C//DTD SVG 1.1//EN" "http://www.w3.org/Graphics/SVG/1.1/DTD/svg11.dtd">
<svg width="100%" height="100%" viewBox="0 0 7560 567" version="1.1" xmlns="http://www.w3.org/2000/svg" xmlns:xlink="http://www.w3.org/1999/xlink" xml:space="preserve" xmlns:serif="http://www.serif.com/" style="fill-rule:evenodd;clip-rule:evenodd;stroke-linejoin:round;stroke-miterlimit:2;">
    <g transform="matrix(2.89049,0,0,2.89049,-358.476,-367.036)">
        <path d="M230.192,191.917L272.372,191.917C288.967,191.917 302.418,178.464 302.418,161.87C302.418,145.276 288.967,131.824 272.372,131.824L230.192,131.824C178.813,131.824 137.015,173.623 137.015,225C137.015,241.896 141.559,257.741 149.452,271.42C153.305,227.164 187.522,191.917 230.192,191.917ZM198.104,217.093C197.478,219.632 197.107,222.268 197.107,225C197.107,243.243 211.95,258.085 230.192,258.085L272.372,258.085C288.965,258.085 302.418,271.536 302.418,288.131C302.418,304.725 288.965,318.177 272.372,318.177L230.192,318.177C174.209,318.177 160.454,280.664 167.818,255.904C172.193,241.184 182.605,226.15 198.104,217.093Z" style="fill:white;fill-rule:nonzero;"/>
    </g>
    <g transform="matrix(1,0,0,1,-14.6572,-11.9777)">
        <path d="M732.998,154.798L732.998,435.808C732.998,439.817 729.743,443.073 725.733,443.073L711.204,443.073C707.194,443.073 703.939,439.817 703.939,435.808L703.939,154.798C703.939,150.789 707.194,147.534 711.204,147.534L725.733,147.534C729.743,147.534 732.998,150.789 732.998,154.798Z" style="fill:white;"/>
    </g>
    <g transform="matrix(1,0,0,1,114,-11.9502)">
        <g transform="matrix(733.333,0,0,733.333,738.53,559.837)">
            <path d="M0.506,-0.604L0.22,-0.604L0.22,-0.421L0.459,-0.421C0.481,-0.421 0.498,-0.416 0.509,-0.406C0.519,-0.396 0.525,-0.383 0.525,-0.366C0.525,-0.35 0.519,-0.336 0.508,-0.327C0.497,-0.317 0.481,-0.312 0.459,-0.312L0.22,-0.312L0.22,-0.076C0.22,-0.046 0.213,-0.024 0.2,-0.01C0.186,0.005 0.169,0.012 0.148,0.012C0.126,0.012 0.109,0.005 0.095,-0.01C0.082,-0.024 0.075,-0.047 0.075,-0.076L0.075,-0.627C0.075,-0.648 0.078,-0.665 0.084,-0.678C0.091,-0.691 0.1,-0.701 0.114,-0.707C0.127,-0.713 0.144,-0.716 0.164,-0.716L0.506,-0.716C0.529,-0.716 0.546,-0.711 0.557,-0.7C0.569,-0.69 0.574,-0.677 0.574,-0.66C0.574,-0.643 0.569,-0.63 0.557,-0.619C0.546,-0.609 0.529,-0.604 0.506,-0.604Z" style="fill:white;fill-rule:nonzero;"/>
        </g>
        <g transform="matrix(733.333,0,0,733.333,1137.47,559.837)">
            <path d="M0.273,-0.306L0.222,-0.306L0.222,-0.076C0.222,-0.046 0.215,-0.024 0.202,-0.009C0.189,0.005 0.171,0.012 0.15,0.012C0.127,0.012 0.109,0.005 0.096,-0.01C0.083,-0.025 0.077,-0.047 0.077,-0.076L0.077,-0.627C0.077,-0.658 0.084,-0.681 0.098,-0.695C0.112,-0.709 0.135,-0.716 0.166,-0.716L0.402,-0.716C0.434,-0.716 0.462,-0.714 0.485,-0.712C0.508,-0.709 0.529,-0.703 0.548,-0.695C0.57,-0.685 0.59,-0.672 0.607,-0.654C0.625,-0.637 0.638,-0.616 0.647,-0.593C0.656,-0.57 0.66,-0.545 0.66,-0.519C0.66,-0.466 0.645,-0.423 0.615,-0.391C0.585,-0.359 0.539,-0.337 0.478,-0.323C0.504,-0.31 0.528,-0.289 0.552,-0.263C0.575,-0.236 0.596,-0.208 0.615,-0.177C0.633,-0.147 0.647,-0.12 0.657,-0.096C0.668,-0.072 0.673,-0.055 0.673,-0.046C0.673,-0.036 0.67,-0.027 0.664,-0.018C0.658,-0.009 0.65,-0.001 0.639,0.004C0.629,0.01 0.617,0.012 0.603,0.012C0.587,0.012 0.573,0.008 0.562,0.001C0.551,-0.007 0.541,-0.017 0.533,-0.028C0.525,-0.04 0.515,-0.057 0.501,-0.08L0.443,-0.177C0.422,-0.212 0.403,-0.239 0.387,-0.258C0.371,-0.276 0.354,-0.289 0.337,-0.296C0.32,-0.303 0.299,-0.306 0.273,-0.306ZM0.356,-0.607L0.222,-0.607L0.222,-0.41L0.352,-0.41C0.387,-0.41 0.416,-0.413 0.44,-0.419C0.464,-0.425 0.482,-0.435 0.494,-0.45C0.507,-0.464 0.513,-0.484 0.513,-0.51C0.513,-0.53 0.508,-0.547 0.498,-0.562C0.488,-0.577 0.474,-0.589 0.456,-0.596C0.439,-0.603 0.406,-0.607 0.356,-0.607Z" style="fill:white;fill-rule:nonzero;"/>
        </g>
        <g transform="matrix(733.333,0,0,733.333,1620.91,559.837)">
            <path d="M0.536,-0.081L0.502,-0.171L0.211,-0.171L0.177,-0.079C0.163,-0.043 0.152,-0.019 0.143,-0.007C0.133,0.006 0.118,0.012 0.096,0.012C0.078,0.012 0.062,0.006 0.048,-0.008C0.034,-0.021 0.027,-0.036 0.027,-0.053C0.027,-0.063 0.028,-0.073 0.032,-0.083C0.035,-0.094 0.04,-0.108 0.048,-0.127L0.231,-0.592C0.236,-0.605 0.242,-0.621 0.25,-0.64C0.257,-0.659 0.265,-0.674 0.273,-0.687C0.281,-0.699 0.292,-0.709 0.306,-0.717C0.319,-0.724 0.336,-0.728 0.356,-0.728C0.376,-0.728 0.393,-0.724 0.406,-0.717C0.42,-0.709 0.431,-0.699 0.439,-0.687C0.448,-0.675 0.455,-0.662 0.46,-0.648C0.466,-0.634 0.473,-0.616 0.482,-0.593L0.669,-0.131C0.684,-0.096 0.691,-0.07 0.691,-0.054C0.691,-0.038 0.684,-0.022 0.67,-0.009C0.656,0.005 0.64,0.012 0.62,0.012C0.609,0.012 0.599,0.01 0.591,0.006C0.583,0.002 0.576,-0.003 0.57,-0.01C0.565,-0.017 0.559,-0.028 0.552,-0.043C0.546,-0.057 0.541,-0.07 0.536,-0.081ZM0.249,-0.28L0.463,-0.28L0.355,-0.575L0.249,-0.28Z" style="fill:white;fill-rule:nonzero;"/>
        </g>
        <g transform="matrix(733.333,0,0,733.333,2104.35,559.837)">
            <path d="M0.267,-0.641L0.546,-0.219L0.546,-0.645C0.546,-0.673 0.552,-0.693 0.564,-0.707C0.576,-0.721 0.592,-0.728 0.612,-0.728C0.633,-0.728 0.649,-0.721 0.661,-0.707C0.673,-0.693 0.679,-0.673 0.679,-0.645L0.679,-0.082C0.679,-0.019 0.653,0.012 0.601,0.012C0.588,0.012 0.576,0.01 0.566,0.007C0.556,0.003 0.546,-0.003 0.537,-0.011C0.528,-0.019 0.519,-0.029 0.511,-0.04C0.503,-0.051 0.496,-0.062 0.488,-0.073L0.216,-0.49L0.216,-0.071C0.216,-0.043 0.209,-0.023 0.197,-0.009C0.184,0.005 0.168,0.012 0.148,0.012C0.127,0.012 0.111,0.005 0.099,-0.009C0.086,-0.023 0.08,-0.044 0.08,-0.071L0.08,-0.623C0.08,-0.646 0.083,-0.665 0.088,-0.678C0.094,-0.693 0.104,-0.705 0.119,-0.714C0.133,-0.723 0.148,-0.728 0.165,-0.728C0.178,-0.728 0.189,-0.726 0.198,-0.722C0.208,-0.717 0.216,-0.712 0.223,-0.705C0.23,-0.697 0.237,-0.688 0.244,-0.677C0.252,-0.665 0.259,-0.653 0.267,-0.641Z" style="fill:white;fill-rule:nonzero;"/>
        </g>
        <g transform="matrix(733.333,0,0,733.333,2617.51,559.837)">
            <path d="M0.688,-0.226C0.688,-0.203 0.682,-0.179 0.671,-0.152C0.66,-0.126 0.642,-0.1 0.618,-0.074C0.594,-0.048 0.563,-0.028 0.526,-0.012C0.488,0.004 0.445,0.012 0.395,0.012C0.357,0.012 0.323,0.009 0.292,0.001C0.261,-0.006 0.233,-0.017 0.208,-0.032C0.183,-0.047 0.159,-0.067 0.138,-0.092C0.119,-0.114 0.103,-0.139 0.09,-0.167C0.076,-0.195 0.066,-0.225 0.06,-0.256C0.053,-0.288 0.05,-0.321 0.05,-0.357C0.05,-0.415 0.058,-0.466 0.075,-0.512C0.092,-0.557 0.116,-0.596 0.147,-0.629C0.178,-0.661 0.215,-0.686 0.257,-0.703C0.299,-0.72 0.344,-0.728 0.391,-0.728C0.449,-0.728 0.501,-0.716 0.546,-0.693C0.591,-0.67 0.626,-0.642 0.65,-0.608C0.674,-0.574 0.686,-0.542 0.686,-0.511C0.686,-0.495 0.68,-0.48 0.668,-0.467C0.657,-0.455 0.643,-0.448 0.626,-0.448C0.607,-0.448 0.594,-0.453 0.584,-0.461C0.575,-0.47 0.565,-0.485 0.553,-0.507C0.534,-0.542 0.512,-0.569 0.487,-0.586C0.461,-0.604 0.43,-0.613 0.392,-0.613C0.333,-0.613 0.285,-0.59 0.25,-0.545C0.214,-0.5 0.197,-0.435 0.197,-0.352C0.197,-0.296 0.205,-0.25 0.22,-0.213C0.236,-0.176 0.258,-0.149 0.287,-0.13C0.315,-0.112 0.349,-0.103 0.387,-0.103C0.429,-0.103 0.464,-0.113 0.493,-0.134C0.522,-0.155 0.543,-0.185 0.558,-0.225C0.564,-0.244 0.572,-0.259 0.581,-0.271C0.59,-0.283 0.605,-0.289 0.625,-0.289C0.642,-0.289 0.657,-0.283 0.669,-0.271C0.682,-0.259 0.688,-0.244 0.688,-0.226Z" style="fill:white;fill-rule:nonzero;"/>
        </g>
        <g transform="matrix(733.333,0,0,733.333,3116.35,559.837)">
            <path d="M0.55,-0.604L0.223,-0.604L0.223,-0.428L0.524,-0.428C0.546,-0.428 0.563,-0.423 0.573,-0.413C0.584,-0.403 0.59,-0.39 0.59,-0.374C0.59,-0.358 0.584,-0.344 0.574,-0.334C0.563,-0.324 0.546,-0.319 0.524,-0.319L0.223,-0.319L0.223,-0.115L0.561,-0.115C0.584,-0.115 0.601,-0.11 0.613,-0.099C0.624,-0.089 0.63,-0.075 0.63,-0.057C0.63,-0.04 0.624,-0.026 0.613,-0.016C0.601,-0.005 0.584,-0 0.561,-0L0.167,-0C0.135,-0 0.113,-0.007 0.099,-0.021C0.085,-0.035 0.078,-0.058 0.078,-0.089L0.078,-0.627C0.078,-0.648 0.081,-0.665 0.087,-0.678C0.094,-0.691 0.103,-0.701 0.116,-0.707C0.13,-0.713 0.146,-0.716 0.167,-0.716L0.55,-0.716C0.573,-0.716 0.59,-0.711 0.601,-0.7C0.613,-0.69 0.618,-0.677 0.618,-0.66C0.618,-0.643 0.613,-0.63 0.601,-0.619C0.59,-0.609 0.573,-0.604 0.55,-0.604Z" style="fill:white;fill-rule:nonzero;"/>
        </g>
        <g transform="matrix(733.333,0,0,733.333,3561.48,559.837)">
            <path d="M0.622,-0.215C0.622,-0.172 0.611,-0.133 0.589,-0.098C0.566,-0.064 0.534,-0.037 0.491,-0.017C0.448,0.002 0.397,0.012 0.338,0.012C0.267,0.012 0.209,-0.001 0.163,-0.028C0.131,-0.047 0.104,-0.073 0.084,-0.105C0.063,-0.137 0.053,-0.168 0.053,-0.198C0.053,-0.216 0.059,-0.231 0.072,-0.243C0.084,-0.256 0.099,-0.262 0.118,-0.262C0.133,-0.262 0.146,-0.257 0.157,-0.248C0.168,-0.238 0.177,-0.223 0.184,-0.204C0.193,-0.181 0.203,-0.162 0.214,-0.147C0.224,-0.132 0.239,-0.119 0.258,-0.109C0.278,-0.099 0.303,-0.094 0.334,-0.094C0.377,-0.094 0.412,-0.104 0.439,-0.124C0.466,-0.144 0.479,-0.169 0.479,-0.199C0.479,-0.223 0.472,-0.242 0.457,-0.257C0.443,-0.272 0.424,-0.283 0.401,-0.291C0.378,-0.299 0.347,-0.307 0.309,-0.316C0.258,-0.328 0.215,-0.342 0.18,-0.358C0.145,-0.374 0.118,-0.396 0.097,-0.424C0.077,-0.452 0.067,-0.486 0.067,-0.528C0.067,-0.567 0.078,-0.602 0.099,-0.633C0.121,-0.663 0.152,-0.687 0.192,-0.703C0.233,-0.72 0.281,-0.728 0.336,-0.728C0.38,-0.728 0.418,-0.723 0.45,-0.712C0.482,-0.701 0.509,-0.686 0.53,-0.668C0.551,-0.65 0.566,-0.631 0.576,-0.611C0.586,-0.591 0.591,-0.572 0.591,-0.553C0.591,-0.536 0.585,-0.52 0.573,-0.507C0.56,-0.493 0.545,-0.486 0.527,-0.486C0.51,-0.486 0.498,-0.49 0.489,-0.498C0.48,-0.507 0.471,-0.52 0.461,-0.539C0.448,-0.566 0.432,-0.587 0.414,-0.602C0.396,-0.617 0.367,-0.625 0.326,-0.625C0.289,-0.625 0.259,-0.617 0.236,-0.6C0.213,-0.584 0.201,-0.564 0.201,-0.541C0.201,-0.527 0.205,-0.514 0.213,-0.504C0.221,-0.493 0.231,-0.485 0.245,-0.477C0.259,-0.47 0.273,-0.464 0.287,-0.459C0.301,-0.455 0.324,-0.449 0.356,-0.441C0.396,-0.431 0.433,-0.421 0.466,-0.41C0.498,-0.398 0.526,-0.384 0.549,-0.368C0.572,-0.352 0.59,-0.331 0.603,-0.306C0.616,-0.281 0.622,-0.251 0.622,-0.215Z" style="fill:white;fill-rule:nonzero;"/>
        </g>
        <g transform="matrix(733.333,0,0,733.333,4006.6,559.837)">
            <path d="M0.688,-0.226C0.688,-0.203 0.682,-0.179 0.671,-0.152C0.66,-0.126 0.642,-0.1 0.618,-0.074C0.594,-0.048 0.563,-0.028 0.526,-0.012C0.488,0.004 0.445,0.012 0.395,0.012C0.357,0.012 0.323,0.009 0.292,0.001C0.261,-0.006 0.233,-0.017 0.208,-0.032C0.183,-0.047 0.159,-0.067 0.138,-0.092C0.119,-0.114 0.103,-0.139 0.09,-0.167C0.076,-0.195 0.066,-0.225 0.06,-0.256C0.053,-0.288 0.05,-0.321 0.05,-0.357C0.05,-0.415 0.058,-0.466 0.075,-0.512C0.092,-0.557 0.116,-0.596 0.147,-0.629C0.178,-0.661 0.215,-0.686 0.257,-0.703C0.299,-0.72 0.344,-0.728 0.391,-0.728C0.449,-0.728 0.501,-0.716 0.546,-0.693C0.591,-0.67 0.626,-0.642 0.65,-0.608C0.674,-0.574 0.686,-0.542 0.686,-0.511C0.686,-0.495 0.68,-0.48 0.668,-0.467C0.657,-0.455 0.643,-0.448 0.626,-0.448C0.607,-0.448 0.594,-0.453 0.584,-0.461C0.575,-0.47 0.565,-0.485 0.553,-0.507C0.534,-0.542 0.512,-0.569 0.487,-0.586C0.461,-0.604 0.43,-0.613 0.392,-0.613C0.333,-0.613 0.285,-0.59 0.25,-0.545C0.214,-0.5 0.197,-0.435 0.197,-0.352C0.197,-0.296 0.205,-0.25 0.22,-0.213C0.236,-0.176 0.258,-0.149 0.287,-0.13C0.315,-0.112 0.349,-0.103 0.387,-0.103C0.429,-0.103 0.464,-0.113 0.493,-0.134C0.522,-0.155 0.543,-0.185 0.558,-0.225C0.564,-0.244 0.572,-0.259 0.581,-0.271C0.59,-0.283 0.605,-0.289 0.625,-0.289C0.642,-0.289 0.657,-0.283 0.669,-0.271C0.682,-0.259 0.688,-0.244 0.688,-0.226Z" style="fill:white;fill-rule:nonzero;"/>
        </g>
        <g transform="matrix(733.333,0,0,733.333,4505.44,559.837)">
            <path d="M0.393,-0.728C0.467,-0.728 0.531,-0.713 0.584,-0.683C0.637,-0.653 0.678,-0.61 0.705,-0.554C0.732,-0.499 0.746,-0.434 0.746,-0.359C0.746,-0.304 0.739,-0.253 0.724,-0.208C0.709,-0.163 0.686,-0.124 0.656,-0.09C0.626,-0.057 0.59,-0.032 0.546,-0.014C0.502,0.003 0.452,0.012 0.396,0.012C0.34,0.012 0.29,0.003 0.246,-0.015C0.201,-0.033 0.164,-0.058 0.135,-0.091C0.105,-0.124 0.083,-0.164 0.068,-0.21C0.052,-0.256 0.045,-0.306 0.045,-0.36C0.045,-0.415 0.053,-0.465 0.069,-0.511C0.084,-0.557 0.107,-0.596 0.137,-0.628C0.167,-0.661 0.204,-0.685 0.247,-0.702C0.29,-0.719 0.338,-0.728 0.393,-0.728ZM0.599,-0.36C0.599,-0.412 0.591,-0.458 0.574,-0.496C0.557,-0.535 0.533,-0.564 0.501,-0.583C0.47,-0.603 0.434,-0.613 0.393,-0.613C0.364,-0.613 0.337,-0.607 0.313,-0.596C0.288,-0.586 0.267,-0.57 0.249,-0.549C0.232,-0.528 0.218,-0.501 0.207,-0.469C0.197,-0.437 0.192,-0.4 0.192,-0.36C0.192,-0.319 0.197,-0.282 0.207,-0.25C0.218,-0.217 0.232,-0.189 0.251,-0.168C0.269,-0.146 0.291,-0.13 0.315,-0.119C0.339,-0.108 0.366,-0.103 0.395,-0.103C0.432,-0.103 0.466,-0.112 0.497,-0.131C0.528,-0.149 0.553,-0.178 0.572,-0.217C0.59,-0.256 0.599,-0.303 0.599,-0.36Z" style="fill:white;fill-rule:nonzero;"/>
        </g>
        <g transform="matrix(733.333,0,0,733.333,5181.57,559.837)">
            <path d="M0.32,-0.108L0.205,-0.564L0.205,-0.07C0.205,-0.042 0.199,-0.022 0.187,-0.008C0.175,0.005 0.158,0.012 0.138,0.012C0.119,0.012 0.103,0.005 0.09,-0.008C0.078,-0.022 0.072,-0.042 0.072,-0.07L0.072,-0.636C0.072,-0.667 0.08,-0.689 0.096,-0.699C0.112,-0.71 0.134,-0.716 0.162,-0.716L0.207,-0.716C0.234,-0.716 0.254,-0.713 0.266,-0.708C0.278,-0.704 0.287,-0.695 0.293,-0.682C0.299,-0.669 0.306,-0.649 0.313,-0.62L0.417,-0.228L0.521,-0.62C0.528,-0.649 0.535,-0.669 0.541,-0.682C0.547,-0.695 0.556,-0.704 0.568,-0.708C0.58,-0.713 0.6,-0.716 0.627,-0.716L0.672,-0.716C0.7,-0.716 0.722,-0.71 0.738,-0.699C0.754,-0.689 0.762,-0.667 0.762,-0.636L0.762,-0.07C0.762,-0.042 0.756,-0.022 0.744,-0.008C0.732,0.005 0.715,0.012 0.695,0.012C0.676,0.012 0.66,0.005 0.647,-0.008C0.635,-0.022 0.629,-0.042 0.629,-0.07L0.629,-0.564L0.514,-0.108C0.507,-0.078 0.501,-0.057 0.496,-0.043C0.491,-0.029 0.482,-0.016 0.47,-0.005C0.457,0.007 0.439,0.012 0.417,0.012C0.4,0.012 0.386,0.009 0.374,0.001C0.362,-0.006 0.353,-0.015 0.347,-0.027C0.34,-0.038 0.335,-0.051 0.331,-0.065C0.328,-0.079 0.324,-0.093 0.32,-0.108Z" style="fill:white;fill-rule:nonzero;"/>
        </g>
        <g transform="matrix(733.333,0,0,733.333,5748.44,559.837)">
            <path d="M0.536,-0.081L0.502,-0.171L0.211,-0.171L0.177,-0.079C0.163,-0.043 0.152,-0.019 0.143,-0.007C0.133,0.006 0.118,0.012 0.096,0.012C0.078,0.012 0.062,0.006 0.048,-0.008C0.034,-0.021 0.027,-0.036 0.027,-0.053C0.027,-0.063 0.028,-0.073 0.032,-0.083C0.035,-0.094 0.04,-0.108 0.048,-0.127L0.231,-0.592C0.236,-0.605 0.242,-0.621 0.25,-0.64C0.257,-0.659 0.265,-0.674 0.273,-0.687C0.281,-0.699 0.292,-0.709 0.306,-0.717C0.319,-0.724 0.336,-0.728 0.356,-0.728C0.376,-0.728 0.393,-0.724 0.406,-0.717C0.42,-0.709 0.431,-0.699 0.439,-0.687C0.448,-0.675 0.455,-0.662 0.46,-0.648C0.466,-0.634 0.473,-0.616 0.482,-0.593L0.669,-0.131C0.684,-0.096 0.691,-0.07 0.691,-0.054C0.691,-0.038 0.684,-0.022 0.67,-0.009C0.656,0.005 0.64,0.012 0.62,0.012C0.609,0.012 0.599,0.01 0.591,0.006C0.583,0.002 0.576,-0.003 0.57,-0.01C0.565,-0.017 0.559,-0.028 0.552,-0.043C0.546,-0.057 0.541,-0.07 0.536,-0.081ZM0.249,-0.28L0.463,-0.28L0.355,-0.575L0.249,-0.28Z" style="fill:white;fill-rule:nonzero;"/>
        </g>
        <g transform="matrix(733.333,0,0,733.333,6231.88,559.837)">
            <path d="M0.084,-0.076L0.084,-0.64C0.084,-0.669 0.091,-0.691 0.104,-0.706C0.117,-0.721 0.135,-0.728 0.156,-0.728C0.178,-0.728 0.195,-0.721 0.209,-0.706C0.222,-0.692 0.229,-0.67 0.229,-0.64L0.229,-0.076C0.229,-0.047 0.222,-0.024 0.209,-0.01C0.195,0.005 0.178,0.012 0.156,0.012C0.135,0.012 0.118,0.005 0.104,-0.01C0.091,-0.025 0.084,-0.047 0.084,-0.076Z" style="fill:white;fill-rule:nonzero;"/>
        </g>
        <g transform="matrix(733.333,0,0,733.333,6417.41,559.837)">
            <path d="M0.168,-0.716L0.357,-0.716C0.406,-0.716 0.448,-0.711 0.483,-0.702C0.519,-0.693 0.55,-0.676 0.579,-0.651C0.654,-0.587 0.691,-0.49 0.691,-0.36C0.691,-0.317 0.687,-0.278 0.68,-0.242C0.672,-0.207 0.661,-0.175 0.645,-0.146C0.629,-0.118 0.609,-0.092 0.585,-0.07C0.566,-0.053 0.545,-0.039 0.522,-0.028C0.499,-0.018 0.475,-0.011 0.448,-0.006C0.422,-0.002 0.393,-0 0.36,-0L0.171,-0C0.145,-0 0.125,-0.004 0.111,-0.012C0.098,-0.02 0.089,-0.031 0.085,-0.046C0.081,-0.06 0.079,-0.079 0.079,-0.102L0.079,-0.627C0.079,-0.658 0.086,-0.681 0.1,-0.695C0.114,-0.709 0.137,-0.716 0.168,-0.716ZM0.224,-0.601L0.224,-0.115L0.334,-0.115C0.358,-0.115 0.377,-0.116 0.391,-0.117C0.404,-0.118 0.418,-0.122 0.433,-0.127C0.448,-0.132 0.46,-0.139 0.471,-0.149C0.52,-0.19 0.544,-0.261 0.544,-0.361C0.544,-0.431 0.533,-0.484 0.512,-0.52C0.491,-0.555 0.464,-0.577 0.433,-0.587C0.402,-0.596 0.364,-0.601 0.32,-0.601L0.224,-0.601Z" style="fill:white;fill-rule:nonzero;"/>
        </g>
        <g transform="matrix(733.333,0,0,733.333,6888.32,559.837)">
            <path d="M0.536,-0.081L0.502,-0.171L0.211,-0.171L0.177,-0.079C0.163,-0.043 0.152,-0.019 0.143,-0.007C0.133,0.006 0.118,0.012 0.096,0.012C0.078,0.012 0.062,0.006 0.048,-0.008C0.034,-0.021 0.027,-0.036 0.027,-0.053C0.027,-0.063 0.028,-0.073 0.032,-0.083C0.035,-0.094 0.04,-0.108 0.048,-0.127L0.231,-0.592C0.236,-0.605 0.242,-0.621 0.25,-0.64C0.257,-0.659 0.265,-0.674 0.273,-0.687C0.281,-0.699 0.292,-0.709 0.306,-0.717C0.319,-0.724 0.336,-0.728 0.356,-0.728C0.376,-0.728 0.393,-0.724 0.406,-0.717C0.42,-0.709 0.431,-0.699 0.439,-0.687C0.448,-0.675 0.455,-0.662 0.46,-0.648C0.466,-0.634 0.473,-0.616 0.482,-0.593L0.669,-0.131C0.684,-0.096 0.691,-0.07 0.691,-0.054C0.691,-0.038 0.684,-0.022 0.67,-0.009C0.656,0.005 0.64,0.012 0.62,0.012C0.609,0.012 0.599,0.01 0.591,0.006C0.583,0.002 0.576,-0.003 0.57,-0.01C0.565,-0.017 0.559,-0.028 0.552,-0.043C0.546,-0.057 0.541,-0.07 0.536,-0.081ZM0.249,-0.28L0.463,-0.28L0.355,-0.575L0.249,-0.28Z" style="fill:white;fill-rule:nonzero;"/>
        </g>
    </g>
</svg>
