<svg id="svg4593" height="512" viewBox="0 0 16.933333 16.933334" width="512" xmlns="http://www.w3.org/2000/svg" xmlns:svg="http://www.w3.org/2000/svg"><clipPath id="clipPath5337"><path id="rect5339" d="m34.774 274.321h35.435v25.702h-35.435z"/></clipPath><clipPath id="clipPath4542"><path id="rect4544" d="m-535.214-48.848h501.574v185.586h-501.574z"/></clipPath><g id="layer1" transform="translate(0 -280.067)"><path id="rect8433-8" d="m25.046875 10.693359c-1.665369 0-2.692093 1.009657-3.369141 2.167969l-6.93164 14.908203c-.963817 2.11869.100798 3.663804.572265 4.230469l5.603516 5.792969v2.832031h8.25v-2.832031l5.603516-5.792969c.471481-.566665 1.434844-2.080862.572265-4.230469l-6.93164-14.908203c-.677048-1.158312-1.703769-2.167969-3.369141-2.167969zm-.027344 13.105469a3.1264204 3.1264204 0 0 1 .003907 0 3.1264204 3.1264204 0 0 1 3.126953 3.126953 3.1264204 3.1264204 0 0 1 -3.126953 3.126953 3.1264204 3.1264204 0 0 1 -3.125-3.126953 3.1264204 3.1264204 0 0 1 3.121093-3.126953z" fill="#ffc100" transform="matrix(.265 0 0 .265 0 280.067)" paint-order="normal"/><path id="rect9962" d="m14.772225 285.15781-4.561996-4.56199v3.11195c0 .80326.646776 1.45004 1.450041 1.45004z" fill="#ffc100" paint-order="normal"/><path id="path10009" d="m13.648438 1c-3.572758 0-6.4804692 2.9077191-6.4804692 6.4804688v49.0390622c-.0000004 3.572712 2.9077112 6.480469 6.4804692 6.480469h36.703124c3.572758 0 6.480469-2.907757 6.480469-6.480469v-37.277343c-.000051-.265199-.105432-.51952-.292969-.707032l-16.658203-16.6582034c-1.148684-.91877552-2.292968-.1060583-2.292968 1.1230474v10.759766c0 3.572749 2.909669 6.480431 6.482421 6.480468h6.72461c1.363604.03061 1.363604-2.030615 0-2h-6.72461c-2.499166 0-4.480468-1.981331-4.480468-4.480468v-9.3457035l15.242187 15.2421875v36.863281c0 2.499137-1.981297 4.480469-4.480469 4.480469h-36.703124c-2.499173 0-4.4804692-1.981332-4.4804692-4.480469v-49.0390622c0-2.4991749 1.9812962-4.4804688 4.4804692-4.4804688h21.007812c1.374476 0 1.418393-2 0-2zm11.398437 8.6914062c-2.151567 0-3.72044 1.6626788-4.273437 2.7460938l-6.888672 14.822266c-.99367 1.641208-.738975 3.937429.664062 5.382812 1.884037 1.940488 3.77253 3.897639 5.65625 5.845703.922394 1.033399 2.437722-.426416 1.439453-1.386719l-5.558593-5.74414c-.914879-.916316-.969678-1.886048-.435547-3.166016l6.894531-14.824218c.40002-.68438.839745-1.212654 1.482422-1.480469v11.052734c-1.787499.451917-3.12891 2.066782-3.128906 3.988281-.000004 2.267112 1.859835 4.126954 4.126953 4.126954 2.267116 0 4.125003-1.859842 4.125-4.126954.000003-1.921978-1.340694-3.536861-3.128907-3.988281v-11.070312c.66738.261319 1.118087.797865 1.527344 1.498047l6.886719 14.824218c.633185 1.329447.436111 2.294358-.419922 3.150391l-5.566406 5.757812c-.179688.186819-.279822.436105-.279297.695313v1.830078h-7.25c-1.363604-.03061-1.363604 2.030615 0 2h8.253906c.549215-.0022.993898-.446879.996094-.996094v-2.427734c1.790195-1.850705 3.584874-3.71332 5.373047-5.558594 1.315836-1.341582 1.729942-3.67369.666015-5.382812l-6.888672-14.822266c-1.03365-1.967643-2.68022-2.7074535-4.273437-2.7460938zm-.02148 15.1113278c1.186235 0 2.125001.938758 2.125 2.125.000001 1.186205-.938765 2.126953-2.125 2.126954-1.186236 0-2.126955-.940749-2.126953-2.126954-.000002-1.186242.940717-2.125 2.126953-2.125zm-7.523438 22.373047c-1.334635 0-1.334635 2.001953 0 2.001953h27.667969c1.334635 0 1.334635-2.001953 0-2.001953zm0 6.984375c-1.363604-.03061-1.363604 2.030615 0 2h14.498043c1.363604.03061 1.363604-2.030615 0-2z" fill="#00003a" transform="matrix(.265 0 0 .265 0 280.067)" font-variant-ligatures="normal" font-variant-position="normal" font-variant-caps="normal" font-variant-numeric="normal" font-variant-alternates="normal" font-feature-settings="normal" text-indent="0" text-align="start" text-decoration-line="none" text-decoration-style="solid" text-decoration-color="#000000" text-transform="none" text-orientation="mixed" white-space="normal" shape-padding="0" isolation="auto" mix-blend-mode="normal" solid-color="#000000" solid-opacity="1" vector-effect="none" paint-order="normal"/></g></svg>