<svg id="svg4593" height="512" viewBox="0 0 16.933333 16.933334" width="512" xmlns="http://www.w3.org/2000/svg" xmlns:svg="http://www.w3.org/2000/svg"><clipPath id="clipPath5337"><path id="rect5339" d="m34.774 274.321h35.435v25.702h-35.435z"/></clipPath><clipPath id="clipPath4542"><path id="rect4544" d="m-535.214-48.848h501.574v185.586h-501.574z"/></clipPath><g id="layer1" transform="translate(0 -280.067)"><g fill="#ffc100"><path id="path7936" d="m3.8535115 283.34293c-.7329001 0-1.3642578.59003-1.4634765 1.32292l-.018087.15209h3.3434649l-.019637-.15209c-.1074873-.74115-.7941387-1.32292-1.5270388-1.32292z" vector-effect="none"/><path id="path7877" d="m9.1694705 281.98694c-.7329 0-1.3642578.59003-1.4634765 1.32292l-.3002402 1.55631h7.0300622l-.324011-1.55631c-.107487-.74116-.794139-1.32292-1.527039-1.32292z" vector-effect="none"/><path id="path11354" d="m2.8000516 286.48901c-.43973 0-.79375.35402-.79375.79375v.26458c0 .41168.35402.79375.79375.79375h1.6536389c.4397404 0 .7937504-.35401.7937504-.79375v-.26458c0-.43973-.35401-.79375-.7937504-.79375z" vector-effect="none"/></g><path id="path8031" d="m12.85302 289.75495a2.1306754 2.1306754 0 0 1 -2.130691 2.13068 2.1306754 2.1306754 0 0 1 -2.1306555-2.13068 2.1306754 2.1306754 0 0 1 2.1306555-2.13067 2.1306754 2.1306754 0 0 1 2.130691 2.13067z" fill="#d1dcff" vector-effect="none"/><path id="path8033" d="m12.85302 289.75495a2.1306754 2.1306754 0 0 1 -2.130691 2.13068 2.1306754 2.1306754 0 0 1 -2.1306555-2.13068 2.1306754 2.1306754 0 0 1 2.1306555-2.13067 2.1306754 2.1306754 0 0 1 2.130691 2.13067z" fill="#ffc100" vector-effect="none"/><path id="path8005" d="m9.169466 281.72236c-.9511032 0-1.6170843.88836-1.723409 1.53737l-.067179.34985c-.080788.35551.4620136.46029.519348.10026.023799-.12058.047094-.24478.069763-.36432.081733-.60373.6105803-1.09399 1.2014771-1.09399h3.4152949c.592888 0 1.177702.49383 1.265039 1.09605.000874.005.0019.0107.0031.016l.236161 1.13326h-8.1566066c-.183215-.8143-.9349222-1.41852-1.7637168-1.41852h-.3152261c-.8292394 0-1.5307433.61984-1.7011881 1.41852h-.2986898c-.87490396 0-1.58801675.71261-1.58801675 1.5875v7.67188c0 .8749.71311279 1.58802 1.58801675 1.58802h13.2286494c.874904 0 1.5875-.71312 1.5875-1.58802v-7.67188c0-.87489-.712596-1.5875-1.5875-1.5875h-.453202l-.255282-1.22473c-.127635-.88009-.916125-1.54978-1.789038-1.54978zm-5.3159545 1.88516h.3152261c.523317 0 1.0391728.38493 1.2133628.88935h-2.6830403c.1594707-.50578.6322112-.88935 1.1544514-.88935zm-1.9998779 1.41852c4.4091962.006 8.8309764 0 13.2286494 0 .590896 0 1.058334.46744 1.058334 1.05833v7.67188c0 .59089-.467438 1.05885-1.058334 1.05885h-13.2286494c-.590896 0-1.05885009-.46796-1.05885009-1.05885v-7.67188c0-.59089.46795409-1.05833 1.05885009-1.05833zm8.8692264.51573c-2.3243255.00002-4.2152425 1.88834-4.215247 4.21266-.0000016 2.32433 1.8909173 4.21471 4.215247 4.21473 2.324357.00002 4.21473-1.89037 4.214729-4.21473-.000004-2.32435-1.890376-4.21268-4.214729-4.21266zm0 .5271c2.038369-.00001 3.685559 1.64719 3.685563 3.68556.000001 2.03837-1.64719 3.68557-3.685563 3.68556-2.0383485-.00002-3.6855649-1.64721-3.6855636-3.68556.000004-2.03834 1.6472188-3.68554 3.6855636-3.68556zm-7.9219973.15606c-.5817381 0-1.0588502.47505-1.0588502 1.05678v.26562c0 .56336.4658604 1.05885 1.0588502 1.05885h1.6520954c.5817412 0 1.05885-.47711 1.05885-1.05885v-.26562c0-.58173-.4771048-1.05678-1.05885-1.05678zm0 .52968h1.6520954c.2977356 0 .5296834.22938.5296834.5271v.26562c0 .29774-.2319436.52916-.5296834.52916h-1.6520954c-.2864703 0-.5291668-.26916-.5291668-.52916v-.26562c0-.29772.2314448-.5271.5291668-.5271zm7.9219973.60513c-1.3197203.00001-2.3967504 1.07497-2.3967533 2.39469-.0000016.69924.3018223 1.33167.7813476 1.7694.2604492.2384.6180503-.15227.3576011-.39067-.3741524-.34155-.6097834-.83101-.6097821-1.37873.0000021-1.03374.8338474-1.86499 1.8675867-1.865 1.033752-.00001 1.864999.83125 1.865002 1.865.000002 1.03376-.831248 1.86708-1.865002 1.86707-.353123 0-.353123.52968 0 .52968 1.319739.00001 2.394172-1.07701 2.394169-2.39675-.000004-1.31973-1.074432-2.3947-2.394169-2.39469z" fill="#00003a" font-variant-ligatures="normal" font-variant-position="normal" font-variant-caps="normal" font-variant-numeric="normal" font-variant-alternates="normal" font-feature-settings="normal" text-indent="0" text-align="start" text-decoration-line="none" text-decoration-style="solid" text-decoration-color="#000000" text-transform="none" text-orientation="mixed" white-space="normal" shape-padding="0" isolation="auto" mix-blend-mode="normal" solid-color="#000000" solid-opacity="1" vector-effect="none"/></g></svg>