<svg id="svg4593" height="512" viewBox="0 0 16.933333 16.933334" width="512" xmlns="http://www.w3.org/2000/svg" xmlns:svg="http://www.w3.org/2000/svg"><clipPath id="clipPath5337"><path id="rect5339" d="m34.774 274.321h35.435v25.702h-35.435z"/></clipPath><clipPath id="clipPath4542"><path id="rect4544" d="m-535.214-48.848h501.574v185.586h-501.574z"/></clipPath><clipPath id="clipPath11017"><path id="rect11019" d="m36.669 153.503h29.654v28.999h-29.654z" transform="rotate(-90)" vector-effect="none"/></clipPath><clipPath id="clipPath11444"><path id="rect11446" d="m-143.933 265.779h28.84v29.104h-28.84z" transform="rotate(-90)" vector-effect="none"/></clipPath><clipPath id="clipPath11781"><rect id="rect11783" height="32.411" rx=".634" transform="rotate(-90)" width="32.941" x="-145.124" y="181.377"/></clipPath><clipPath id="clipPath11499"><path id="rect11501" d="m-551.399-9.261h16.064v16.347h-16.064z" vector-effect="none"/></clipPath><g id="layer1" transform="translate(0 -280.067)"><path id="path11674-2" d="m2.2441406 288.2686a.264645.264645 0 1 0 0 .52929h1.4746094a.264645.264645 0 1 0 0-.52929z" fill="#00003a" font-variant-ligatures="normal" font-variant-position="normal" font-variant-caps="normal" font-variant-numeric="normal" font-variant-alternates="normal" font-feature-settings="normal" text-indent="0" text-align="start" text-decoration-line="none" text-decoration-style="solid" text-decoration-color="#000000" text-transform="none" text-orientation="mixed" white-space="normal" shape-padding="0" isolation="auto" mix-blend-mode="normal" solid-color="#000000" solid-opacity="1" vector-effect="none"/><path id="path11678-9" d="m13.259766 288.2686a.264645.264645 0 1 0 0 .52929h1.472656a.264645.264645 0 1 0 0-.52929z" fill="#00003a" font-variant-ligatures="normal" font-variant-position="normal" font-variant-caps="normal" font-variant-numeric="normal" font-variant-alternates="normal" font-feature-settings="normal" text-indent="0" text-align="start" text-decoration-line="none" text-decoration-style="solid" text-decoration-color="#000000" text-transform="none" text-orientation="mixed" white-space="normal" shape-padding="0" isolation="auto" mix-blend-mode="normal" solid-color="#000000" solid-opacity="1" vector-effect="none"/><g fill="#ffc100"><path id="path1093-2" d="m.529187 290.16733v1.6769c0 .73289.59002 1.32291 1.32292 1.32291h1.58233c0-1.72109-1.2766412-2.99981-2.90525-2.99981z" vector-effect="none"/><path id="path1100-8" d="m.529187 286.89931v-1.6769c0-.73289.59002-1.32292 1.32292-1.32292h1.58233c0 2.04415-1.4682301 2.91991-2.90525 2.99982z" vector-effect="none"/><path id="path1104-8" d="m16.404117 290.16733v1.6769c0 .73289-.59002 1.32292-1.32292 1.32292h-1.58233c-.112025-1.68214 1.495736-2.99982 2.90525-2.99982z" vector-effect="none"/><path id="path1106-6" d="m16.404117 286.89931v-1.6769c0-.73289-.59002-1.32292-1.32292-1.32292h-1.58233c0 1.94808 1.53028 2.99982 2.90525 2.99982z" vector-effect="none"/></g><path id="path1098-4" d="m1.8515666 283.63594c-.87490169 0-1.5880168.71106-1.5880168 1.58595v6.62285c0 .87489.71311511 1.58802 1.5880168 1.58802h13.2307164c.874902 0 1.585433-.71313 1.585433-1.58802v-6.62285c0-.87489-.710531-1.58595-1.585433-1.58595zm0 .5271h11.3848344c.07816 1.58516 1.329162 2.86528 2.902149 2.98948v2.76159c-1.572304.12432-2.823005 1.40516-2.902149 2.98948h-9.5415361c-.079078-1.585-1.3290556-2.86612-2.90214843-2.98948v-2.75952c1.32315473-.10317 2.42096183-1.02357 2.78329263-2.25878.052741-.17273-.078874-.34667-.2594158-.3421-.1161711.003-.2167943.0813-.2480469.19327-.2974493 1.01403-1.1893924 1.77482-2.27582993 1.87638v-1.40147c0-.59089.46795173-1.05885 1.05885013-1.05885zm11.9140014 0h1.316715c.590899 0 1.056267.46796 1.056267 1.05885v1.40147c-1.28589-.12072-2.296899-1.16181-2.372982-2.46032zm-12.97285153 6.28024c1.28642753.11974 2.29808833 1.16172 2.37504873 2.46031h-1.3161986c-.5908984 0-1.05885015-.46797-1.05885013-1.05885zm15.34583353 0v1.40146c0 .59088-.465368 1.05885-1.056267 1.05885h-1.316198c.07695-1.29775 1.08723-2.33941 2.372465-2.46031z" fill="#00003a" font-variant-ligatures="normal" font-variant-position="normal" font-variant-caps="normal" font-variant-numeric="normal" font-variant-alternates="normal" font-feature-settings="normal" text-indent="0" text-align="start" text-decoration-line="none" text-decoration-style="solid" text-decoration-color="#000000" text-transform="none" text-orientation="mixed" white-space="normal" shape-padding="0" isolation="auto" mix-blend-mode="normal" solid-color="#000000" solid-opacity="1" vector-effect="none"/><path id="path5073" d="m14.044922 6.6425781c-1.146866.7564725.05072 2.4583625 1.15039 1.6347657 9.538697-6.7106352 22.088581-7.0157143 31.902344-.9589844l-1.914062.6171875c-1.276832.4050998-.659988 2.3204601.613281 1.9042969l3.890625-1.2636719c.388176-.1237911.66245-.4706899.693359-.8769531l.273438-4.015625c.107757-1.4190329-1.886157-1.3934-1.992188-.1347657l-.158203 2.2988281c-10.295165-6.927247-25.259979-5.91651919-34.458984.7949219zm3.546872 47.2598079-3.919922 1.179687c-.389386.120367-.666778.464982-.701172.871094l-.355469 4.009766c-.113281 1.329427 1.88086 1.499348 1.994141.169921l.203128-2.296916c10.734284 6.41625 22.510949 6.900171 34.462891-.140626 1.161173-.734587-.0039-2.45902-1.119141-1.65625-9.661703 6.526856-22.212076 6.594376-31.908203.357422l1.917969-.582031c1.298212-.395146.766302-2.300694-.574222-1.912067z" fill="#00003a" transform="matrix(.265 0 0 .265 0 280.067)" font-variant-ligatures="normal" font-variant-position="normal" font-variant-caps="normal" font-variant-numeric="normal" font-variant-alternates="normal" font-feature-settings="normal" text-indent="0" text-align="start" text-decoration-line="none" text-decoration-style="solid" text-decoration-color="#000000" text-transform="none" text-orientation="mixed" white-space="normal" shape-padding="0" isolation="auto" mix-blend-mode="normal" solid-color="#000000" solid-opacity="1" vector-effect="none"/><path id="path2456-5" d="m11.108537 288.5339a2.6418841 2.6418841 0 0 1 -2.64189 2.64189 2.6418841 2.6418841 0 0 1 -2.641879-2.64189 2.6418841 2.6418841 0 0 1 2.641879-2.64188 2.6418841 2.6418841 0 0 1 2.64189 2.64188z" fill="#ffc100" vector-effect="none"/><path id="path2464-9" d="m8.466647 285.62709c-1.60206 0-2.906279 1.30421-2.906279 2.90627s1.304219 2.9063 2.906279 2.9063c1.60207 0 2.90629-1.30422 2.90629-2.9063 0-1.60207-1.30422-2.90629-2.90629-2.90627zm0 .52967c1.31609 0 2.37712 1.06052 2.37712 2.3766s-1.06103 2.37712-2.37712 2.37712c-.67496 0-1.28155-.28028-1.71359-.72967.26302-.39686.6558-.66037 1.12345-.79892.2047-.0594.26681-.36944.1018-.50436-.17783-.14619-.2811-.36357-.28112-.59377.00005-.4278.34165-.76993.76946-.76997.42781.00004.76942.34217.76947.76997-.000344.23-.10337.44577-.28112.5917-.16507.13426-.112029.39845.092.45889.1962.0582.3813.14496.5488.2558.29859.21624.60735-.25211.29094-.44132-.1331-.0881-.22105-.14068-.36948-.20309.13825-.20946.24818-.40561.24856-.66198 0-.73478-.56324-1.29914-1.29915-1.29914-.71375.00007-1.29855.5854-1.29862 1.29914.00001.28138.0964.50855.26096.73019-.40723.17383-.747.40133-1.00872.72761-.20887-.35395-.33022-.76612-.33021-1.2082 0-1.41624 1.136368-2.33909 2.37657-2.3766z" fill="#00003a" font-variant-ligatures="normal" font-variant-position="normal" font-variant-caps="normal" font-variant-numeric="normal" font-variant-alternates="normal" font-feature-settings="normal" text-indent="0" text-align="start" text-decoration-line="none" text-decoration-style="solid" text-decoration-color="#000000" text-transform="none" text-orientation="mixed" white-space="normal" shape-padding="0" isolation="auto" mix-blend-mode="normal" solid-color="#000000" solid-opacity="1" vector-effect="none"/></g></svg>