<svg id="svg4593" height="512" viewBox="0 0 16.933333 16.933334" width="512" xmlns="http://www.w3.org/2000/svg" xmlns:svg="http://www.w3.org/2000/svg"><clipPath id="clipPath5337"><path id="rect5339" d="m34.774 274.321h35.435v25.702h-35.435z"/></clipPath><clipPath id="clipPath4542"><path id="rect4544" d="m-535.214-48.848h501.574v185.586h-501.574z"/></clipPath><g id="layer1" transform="translate(0 -280.067)"><g fill="#ffc100"><path id="rect8928" d="m12.054081 280.59582c-.50528 0-.912089.40681-.912089.91209v4.92618h1.824178v-4.92618c0-.50528-.406809-.91209-.912089-.91209z" paint-order="normal"/><path id="path8926" d="m9.6728282 295.07969v.29352c0 .60842.4897048 1.09812 1.0981238 1.09812h2.566252c.60842 0 1.098124-.4897 1.098124-1.09812v-.29352z" paint-order="normal"/><path id="rect8940" d="m7.5240667 283.02918-1.0242825 2.51848c-.2105536.5177-.4499317 1.00882-1.0088157 1.00882h-2.408736c-.558884 0-.7855546-.49647-1.0088158-1.00882l-1.09744554-2.51848c-.88084623-3.28737 7.43360074-3.20077 6.54809554 0z" paint-order="normal"/><path id="path8938" d="m9.6728307 287.48161v-.11812c0-.60842.4897053-1.09812 1.0981243-1.09812h2.566251c.60842 0 1.098124.4897 1.098124 1.09812v.11812z" paint-order="normal"/><path id="rect8959" d="m3.0461887 288.53333h2.4083315c.2903857 0 .5241618.23377.5241618.52416v5.39521c0 .29038-.2337761.52416-.5241618.52416h-2.4083315c-.2903856 0-.5241617-.23378-.5241617-.52416v-5.39521c0-.29039.2337761-.52416.5241617-.52416z" paint-order="normal"/></g><path id="path9032" d="m1.6112712 280.96892c-.7968237.49158-1.17832212 1.33908-.87694917 2.16576l1.09554037 2.51974c.1542767.35404.3134661.74771.6661092.99012.2917995.19947.591006-.23823.2992066-.4377-.1742511-.11978-.3258898-.41505-.4785238-.76532l-1.0841715-2.48667c-.24818748-.61097.1211743-1.2058.622701-1.51206l.7462077 2.21744c.1119655.33486.6142603.16691.502295-.16795l-.7725628-2.29598c.4602467-.1873 1.0223731-.30055 1.6024863-.32815v1.49138c-.008.36069.5371661.36069.5291667 0v-1.49086c.5377465.0223 1.064324.11706 1.5146361.27543l-.7916831 2.34818c-.1236295.34024.3956831.51406.5017783.16795l.7751464-2.30322c.6474923.30202 1.0349116.98446.806669 1.59784l-1.0154417 2.49235c-.1030941.25348-.2103667.48302-.3317629.6289-.1213958.14588-.2300737.21498-.4320148.21498h-1.8834007c-.2160884 0-.2714183.14221-.3097461.28525l-.3684532 1.70532c-.3768746.058-.6707608.3832-.6707608.77515v5.39657c0 .39495.2984919.72324.6795449.77773.07954.30826.159453.61784.2387452.92552.1105374.42323.3691398.57826.7596436.57826h.6661092c.4386392 0 .6427613-.26406.7281209-.59789.075785-.30176.1550778-.60416.2330609-.90589.3817807-.0538.6810951-.38225.6810951-.77773v-5.39657c0-.39282-.2952556-.71827-.6733436-.77515l-.3147097-1.46141h.2340943c.356943 0 .6490896-.17501.839742-.40411.1906526-.22911.3069854-.50524.4144449-.76946l1.0252604-2.51767c.3125594-.89957-.161222-1.71643-.876949-2.13476-1.3146479-.82695-3.8212413-.92501-5.2813312-.0253zm10.4432898-.63665c-.647294 0-1.177706.52835-1.177706 1.17564v4.49223h-.105419c-.684625 0-1.2530401.51065-1.3477218 1.16995h-.2402956c-.7504221 0-1.3632241.61281-1.3632241 1.36323v5.49785c0 .75042.612802 1.36323 1.3632241 1.36323h.2258261c.01152.7406.6189483 1.34203 1.3621913 1.34203h2.566251c.743243 0 1.349156-.60143 1.36064-1.34203h.22531c.750422 0 1.363224-.61281 1.363224-1.36323v-5.49785c0-.75042-.612802-1.36323-1.363224-1.36323h-.239779c-.0944-.6593-.661546-1.16995-1.346171-1.16995h-1.931665v-4.49223c0-.36326.285272-.64648.648539-.64648.363266 0 .646472.28322.646472.64648v3.90828c0 .35313.529684.35313.529684 0v-3.90828c0-.64729-.528863-1.17564-1.176156-1.17564zm-1.283125 6.19703h2.566251c.399492 0 .723001.27036.808219.64079h-4.1842402c.08563-.37043.4102792-.64079.8097702-.64079zm-6.9856206.29094h.9291421l.3121258 1.44953h-1.5539104zm5.3976032.87902h.5183147c-.1810485.23145-.2935221.51884-.2935221.83406v5.49785c0 .31522.1124736.60261.2935221.83406h-.5183147c-.4664176 0-.8340574-.36764-.8340574-.83406v-5.49785c0-.46641.3676398-.83406.8340574-.83406zm1.5880174 0h2.566251c.466417 0 .83199.36765.831991.83406v5.49785c0 .46642-.365574.83406-.831991.83406h-2.566251c-.466417 0-.8340581-.36764-.8340581-.83406v-5.49785c0-.46641.3676411-.83406.8340581-.83406zm3.63492 0h.517281c.466418 0 .834057.36765.834057.83406v5.49785c0 .46642-.367639.83406-.834057.83406h-.517281c.180648-.23145.293005-.51884.293005-.83406v-5.49785c0-.31522-.112357-.60261-.293005-.83406zm-11.3595136 1.09967h2.4081219c.1483868 0 .2599322.10948.2599322.25787v5.39657c0 .14838-.1115515.25941-.2599322.25941h-2.4081219c-.1483807 0-.2599325-.11103-.2599325-.25941v-5.39657c0-.14839.1115457-.25787.2599325-.25787zm.4408001 6.44302h1.526005l-.1953369.75448c-.054618.18101-.1197284.21084-.2165244.21084h-.6661092c-.1864907 0-.217161-.0781-.252181-.20102zm6.4518023.15245h4.2281652c-.01118.45605-.370762.81287-.829923.81287h-2.566251c-.459163 0-.820753-.35682-.8319912-.81287z" fill="#00003a" font-variant-ligatures="normal" font-variant-position="normal" font-variant-caps="normal" font-variant-numeric="normal" font-variant-alternates="normal" font-feature-settings="normal" text-indent="0" text-align="start" text-decoration-line="none" text-decoration-style="solid" text-decoration-color="#000000" text-transform="none" text-orientation="mixed" white-space="normal" shape-padding="0" isolation="auto" mix-blend-mode="normal" solid-color="#000000" solid-opacity="1" vector-effect="none" paint-order="normal"/></g></svg>