<svg id="svg4593" height="512" viewBox="0 0 16.933333 16.933334" width="512" xmlns="http://www.w3.org/2000/svg" xmlns:svg="http://www.w3.org/2000/svg"><clipPath id="clipPath5337"><path id="rect5339" d="m34.774 274.321h35.435v25.702h-35.435z"/></clipPath><clipPath id="clipPath4542"><path id="rect4544" d="m-535.214-48.848h501.574v185.586h-501.574z"/></clipPath><clipPath id="clipPath11017"><path id="rect11019" d="m36.669 153.503h29.654v28.999h-29.654z" transform="rotate(-90)" vector-effect="none"/></clipPath><clipPath id="clipPath11444"><path id="rect11446" d="m-143.933 265.779h28.84v29.104h-28.84z" transform="rotate(-90)" vector-effect="none"/></clipPath><clipPath id="clipPath11781"><rect id="rect11783" height="32.411" rx=".634" transform="rotate(-90)" width="32.941" x="-145.124" y="181.377"/></clipPath><clipPath id="clipPath11499"><path id="rect11501" d="m-551.399-9.261h16.064v16.347h-16.064z" vector-effect="none"/></clipPath><g id="layer1" transform="translate(0 -280.067)"><path id="rect6455" d="m15.782194 285.242c-.624224-.70584-2.07712-2.35695-4.219381-4.64622v3.32331c0 .73289.590021 1.32291 1.322917 1.32291z" fill="#ffc100" vector-effect="none"/><path id="rect6457" d="m2.4103692 293.75884c-.013403.10302-.022738.2074-.022738.31419 0 1.32838 1.0694104 2.39779 2.3977864 2.39779h8.5989584c-1.422384-.31912-2.176608-1.2022-2.176608-2.71181z" fill="#ffc100" vector-effect="none"/><path id="path6643" d="m7.3213555 284.13477c-.3528598.0182-.3255158.54752.027344.52929h2.6621095c.35286 0 .35286-.52929 0-.52929-.8956444 0-1.7958488 0-2.6894535 0z" fill="#00003a" font-variant-ligatures="normal" font-variant-position="normal" font-variant-caps="normal" font-variant-numeric="normal" font-variant-alternates="normal" font-feature-settings="normal" text-indent="0" text-align="start" text-decoration-line="none" text-decoration-style="solid" text-decoration-color="#000000" text-transform="none" text-orientation="mixed" white-space="normal" shape-padding="0" isolation="auto" mix-blend-mode="normal" solid-color="#000000" solid-opacity="1" vector-effect="none"/><path id="path6647" d="m12.895574 290.83203-.492188.85352-.107422-.18555c-.08705-.15044-.293033-.17752-.416015-.0547l-.416016.41602h-1.232421c-.35286 0-.35286.52929 0 .52929h1.341796c.0704-.00005.137878-.0282.1875-.0781l.248047-.24805.164063.28321c.101699.17718.357285.17718.458984 0l.402344-.69727.214843.80469c.09111.34121.602831.20449.511719-.13672l-.380859-1.42188c-.06296-.23499-.364865-.27146-.484375-.0645z" fill="#00003a" font-variant-ligatures="normal" font-variant-position="normal" font-variant-caps="normal" font-variant-numeric="normal" font-variant-alternates="normal" font-feature-settings="normal" text-indent="0" text-align="start" text-decoration-line="none" text-decoration-style="solid" text-decoration-color="#000000" text-transform="none" text-orientation="mixed" white-space="normal" shape-padding="0" isolation="auto" mix-blend-mode="normal" solid-color="#000000" solid-opacity="1" vector-effect="none"/><path id="path1965-62" d="m7.821147 288.52647a3.3368752 3.3368752 0 0 1 -3.336875 3.33688 3.3368752 3.3368752 0 0 1 -3.336875-3.33688 3.3368752 3.3368752 0 0 1 3.336875-3.33687 3.3368752 3.3368752 0 0 1 3.336875 3.33687z" fill="#ffc100" vector-effect="none"/><g fill="#00003a"><path id="path17936-4-12-1" d="m4.4834387 286.58961c-.1322916.005-.2645833.10408-.2645833.28318v.10697c-1.0348153.31237-.7766653 1.84588.2542482 1.84588.5745311 0 .4995767.83923.031006.83923-.222704 0-.3771093-.105-.4335653-.31574-.087448-.34767-.6095228-.20792-.5115968.13694.088522.33038.3478438.57277.6599082.66094v.046c-.00801.3607.5371727.3607.5291667 0v-.0522c1.0417966-.4094.6827335-1.84433-.2537312-1.84433-.5851877 0-.5086782-.84698-.034107-.84698.2599909 0 .384778.12985.4366659.3235.085948.35202.6149616.20881.5115968-.1385-.08854-.33044-.3482774-.57281-.6604249-.66094v-.10077c0-.19844-.1322917-.28802-.2645833-.28318z" font-variant-ligatures="normal" font-variant-position="normal" font-variant-caps="normal" font-variant-numeric="normal" font-variant-alternates="normal" font-feature-settings="normal" text-indent="0" text-align="start" text-decoration-line="none" text-decoration-style="solid" text-decoration-color="#000000" text-transform="none" text-orientation="mixed" white-space="normal" shape-padding="0" isolation="auto" mix-blend-mode="normal" solid-color="#000000" solid-opacity="1" vector-effect="none"/><path id="path6616" d="m25.146484 1.0039062c-3.306701 0-5.994141 2.687432-5.99414 5.9941407v11.5625001c-.718999-.117801-1.451318-.195313-2.203125-.195313-7.505744 0-13.6132693 6.105605-13.6132815 13.611328 0 1.334635 2.0019531 1.334635 2.0019531 0 .0000102-6.424816 5.1864664-11.611328 11.6113284-11.611328s11.611318 5.186512 11.611328 11.611328c.00001 6.424895-5.18645 11.613282-11.611328 11.613282-3.832603 0-7.2216544-1.855958-9.3378909-4.710938-.3761219-.507477-.7076268-1.043617-.9980469-1.609375-.5896488-1.248718-2.4522021-.288786-1.7773437.916016.3406413.663572.733224 1.296181 1.1738281 1.890625 2.4793062 3.344806 6.4620764 5.513672 10.9394534 5.513672.751808 0 1.484125-.07751 2.203125-.195313v5.355469h-6.164063c-1.333668 0-1.333668 2 0 2h28.302735c.295271 3.586316 1.868636 6.796463 4.208984 8.251953h-27.410156c-4.483934 0-8.06836-3.584441-8.06836-8.068359 0-.345449.03288-.692118.08008-1.054688 0-1.365442-1.6884371-1.362265-1.9843745-.257812-.054142.416164-.095703.852557-.095703 1.314453.0000004 5.557342 4.5110255 10.068359 10.0683595 10.068359h36.5625c3.306697 0 5.99414-2.695244 5.99414-6.001953v-37.441406c.001703-.253984-.093242-.499027-.265627-.685547-8.086953-8.641928-13.567853-14.8684105-15.929687-17.5390625-.19011-.2116535-.46148-.3324089-.746094-.3320313zm0 2h18.115235c2.244599 2.5389658 7.124484 8.0448278 14.107422 15.5527348h-8.666016c-2.233296 0-4.001953-1.758903-4.001953-3.992188v-7.5664061c0-1.3952319-2-1.326285-2 0v7.5664061c0 3.306709 2.695252 5.994141 6.001953 5.994141h9.943359v36.443359c0 2.233323-1.760848 4.001953-3.99414 4.001953h-3.53125c-4.104486 0-7.771485-3.621771-7.771485-9.125.077934-.597619-.385601-1.127394-.988281-1.128906h-21.214844v-5.830078c3.979074-1.293923 7.152583-4.376758 8.583985-8.291016h22.167969c1.333643 0 1.333643-2.001953 0-2.001953h-21.607422c.570915-1.961505.276908-5.593649-.888672-8.126953h22.496094c1.333643 0 1.333643-2 0-2h-23.59375c-1.685318-2.54704-4.197592-4.5021-7.158204-5.464844v-12.0371091c0-2.2332851 1.766703-3.9941406 4-3.9941407z" transform="matrix(.265 0 0 .265 0 280.067)" font-variant-ligatures="normal" font-variant-position="normal" font-variant-caps="normal" font-variant-numeric="normal" font-variant-alternates="normal" font-feature-settings="normal" text-indent="0" text-align="start" text-decoration-line="none" text-decoration-style="solid" text-decoration-color="#000000" text-transform="none" text-orientation="mixed" white-space="normal" shape-padding="0" isolation="auto" mix-blend-mode="normal" solid-color="#000000" solid-opacity="1" vector-effect="none"/></g></g></svg>