<svg id="svg4593" height="512" viewBox="0 0 16.933333 16.933334" width="512" xmlns="http://www.w3.org/2000/svg" xmlns:svg="http://www.w3.org/2000/svg"><clipPath id="clipPath5337"><path id="rect5339" d="m34.774 274.321h35.435v25.702h-35.435z"/></clipPath><clipPath id="clipPath4542"><path id="rect4544" d="m-535.214-48.848h501.574v185.586h-501.574z"/></clipPath><g id="layer1" transform="translate(0 -280.067)"><g fill="#ffc100"><path id="rect6049-4" d="m5.32474 294.98254c-.73289 0-1.32291.59002-1.32291 1.32291v.16537h8.92968v-.16537c0-.73289-.59002-1.32291-1.32291-1.32291z" vector-effect="none"/><path id="rect11359" d="m33.539062 18.029297c-1.115792 0-2.230932.428236-3.085937 1.283203l-10.490234 10.488281-4.533203-4.533203c-1.695308-1.695307-4.423834-1.695307-6.1191411 0l-7.3105469 7.308594v8.240234h41.751953v-14.378906l-7.126953-7.125c-.854967-.855005-1.970145-1.283203-3.085938-1.283203z" transform="matrix(.265 0 0 .265 0 280.067)" paint-order="normal"/><path id="path2746-1-5" d="m6.6210106 283.47316a1.7999465 1.7999465 0 0 1 -1.79996 1.79995 1.7999465 1.7999465 0 0 1 -1.79993-1.79995 1.7999465 1.7999465 0 0 1 1.79993-1.79994 1.7999465 1.7999465 0 0 1 1.79996 1.79994z" vector-effect="none"/></g><path id="path6094" d="m4.8203506 281.40769c-1.137065.00001-2.064449.92934-2.064454 2.06641-.000002 1.13706.927385 2.06444 2.064454 2.06445 1.137082.00001 2.064455-.92737 2.064453-2.06445-.000004-1.13708-.927376-2.06642-2.064453-2.06641zm0 .5293c.851094-.00001 1.535153.68601 1.535156 1.53711.000002.85109-.684059 1.53516-1.535156 1.53515-.851088-.00001-1.535158-.68407-1.535157-1.53515.000003-.85109.684073-1.53711 1.535157-1.53711z" fill="#00003a" font-variant-ligatures="normal" font-variant-position="normal" font-variant-caps="normal" font-variant-numeric="normal" font-variant-alternates="normal" font-feature-settings="normal" text-indent="0" text-align="start" text-decoration-line="none" text-decoration-style="solid" text-decoration-color="#000000" text-transform="none" text-orientation="mixed" white-space="normal" shape-padding="0" isolation="auto" mix-blend-mode="normal" solid-color="#000000" solid-opacity="1" vector-effect="none"/><path id="path6242-5" d="m6.9980469 1.0039062c-3.3067148 0-6.00195315 2.6874698-6.00195315 5.9941407-.007837 12.3484231 0 24.6700911 0 37.0039061 0 3.306709 2.69523845 5.994141 6.00195315 5.994141h28.9375001v5.382812h-7.869141v-2.6875c.01114-.567622-.451909-1.030671-1.019531-1.019531-.552306.01074-.991306.467226-.980469 1.019531v2.6875h-5.943359c-3.306685 0-6.001953 2.687432-6.001953 5.994141v.626953c-.0021.555317.448589 1.006023 1.003906 1.003906h33.75c.552263-.002208.9982-.451642.996094-1.003906v-.626953c.000004-3.306709-2.685502-5.994141-5.992188-5.994141h-5.943359v-5.382812h19.068359c3.306716 0 5.992188-2.687432 5.992188-5.994141v-3.75c.002106-.552264-.443831-1.001698-.996094-1.003906h-17.248047c.0095-5.611649 0-11.216542 0-16.808594h16.244141v13.65625c-.03026 1.363256 2.030259 1.363256 2 0v-14.632812c.000339-.01595.000339-.03093 0-.04687v-14.4179741c0-3.3066709-2.685472-5.9941407-5.992188-5.9941407zm0 2h35.7539061v21.0195318l-5.419922-5.417969c-1.044358-1.044435-2.421334-1.576172-3.792969-1.576172-1.371653 0-2.748603.53185-3.792968 1.576172l-9.783203 9.78125-3.826172-3.826172c-2.074661-2.074658-5.458543-2.074658-7.5332034 0l-5.6074218 5.605469v-23.1679691c0-2.2332851 1.7686363-3.9941407 4.0019531-3.9941407zm37.7539061 0h12.251953c2.233319 0 3.992188 1.7608556 3.992188 3.9941407v13.4414061h-16.244141zm-11.212891 16.0253908c.859953 0 1.713331.324659 2.378907.990234l6.833984 6.832031v12.396485h-39.7558592v-6.253906l7.0214842-7.019532c1.315954-1.315956 3.389123-1.315956 4.705078 0l4.533203 4.533203c.39053.390369 1.023533.390369 1.414063 0l10.490234-10.488281c.665645-.665612 1.51898-.990234 2.378906-.990234zm-30.5429682 22.220703h58.0000002v2.751953c0 2.233285-1.758869 4.001953-3.992188 4.001953-16.681823-.01853-33.313611 0-50.0058591 0-2.2333168 0-4.0019532-1.768668-4.0019531-4.001953zm17.1269532 16.128906h23.755859c2.088329 0 3.636382 1.598418 3.845703 3.625h-31.447265c.210482-2.025297 1.758263-3.625 3.845703-3.625z" fill="#00003a" transform="matrix(.265 0 0 .265 0 280.067)" font-variant-ligatures="normal" font-variant-position="normal" font-variant-caps="normal" font-variant-numeric="normal" font-variant-alternates="normal" font-feature-settings="normal" text-indent="0" text-align="start" text-decoration-line="none" text-decoration-style="solid" text-decoration-color="#000000" text-transform="none" text-orientation="mixed" white-space="normal" shape-padding="0" isolation="auto" mix-blend-mode="normal" solid-color="#000000" solid-opacity="1" vector-effect="none"/></g></svg>