<svg id="svg4593" height="512" viewBox="0 0 16.933333 16.933334" width="512" xmlns="http://www.w3.org/2000/svg" xmlns:svg="http://www.w3.org/2000/svg"><clipPath id="clipPath5337"><path id="rect5339" d="m34.774 274.321h35.435v25.702h-35.435z"/></clipPath><clipPath id="clipPath4542"><path id="rect4544" d="m-535.214-48.848h501.574v185.586h-501.574z"/></clipPath><g id="layer1" transform="translate(0 -280.067)"><g fill="#ffc100"><path id="path27607" d="m46.654297 40.820312c-2.035253.03659-4.11824.670851-6.044922 1.783204l-8.609375 4.970703c1.742477 3.014664 3.816607 6.608433 5.447266 9.427734 2.841425 4.921512 9.270676 6.376744 14.193359 3.537109 5.038469-2.909102 6.766309-9.351947 3.857422-14.390624-2.189991-3.79321-5.451662-5.388976-8.84375-5.328126zm2.582031 8.941407c.912934 1.581354.37234 3.602642-1.208984 4.515625-1.581305.912945-3.604588.372294-4.517578-1.208985-.913002-1.581316-.370417-3.604557 1.210937-4.517578 1.684448-.972516 3.707016-.189613 4.515625 1.210938z" transform="matrix(.265 0 0 .265 0 280.067)" paint-order="normal"/><path id="path27431" d="m17.775391 40.820312c-3.392089-.06094-6.653761 1.534921-8.8437504 5.328126-2.9088887 5.038676-1.1810449 11.481523 3.8574214 14.390624 4.922684 2.839635 11.351934 1.384403 14.19336-3.537109 1.630657-2.819285 3.704789-6.413033 5.447266-9.427734l-8.609376-4.970703c-1.92668-1.112372-4.009668-1.746639-6.044921-1.783204zm1.933593 7.730469c1.581347.913021 2.123941 2.936262 1.210938 4.517578-.912991 1.581279-2.936275 2.12193-4.517578 1.208985-1.581308-.912983-2.121922-2.934271-1.208985-4.515625 1.066547-1.847313 2.970584-2.102968 4.515625-1.210938z" transform="matrix(.265 0 0 .265 0 280.067)" paint-order="normal"/><path id="path27624" d="m8.0689252 289.92146c-.1640811-.28418-.066715-.64757.2174798-.81166.2841902-.16407.6475841-.0667.8116605.21749.1640689.2842.066702.64758-.217488.81165-.2841861.16408-.6475732.0667-.8116523-.21748z" vector-effect="none"/></g><path id="path15078" d="m20.728516 1.5195312-6.105469 3.5292969c-3.448167 1.9907528-4.6334032 6.4130379-2.642578 9.8613279 4.356628 7.54935 8.727996 15.12881 12.947265 22.433594l-1.734375 4.171875c-2.455475-1.174299-5.072897-1.993936-7.617187-1.513672-2.921312.551433-5.6324564 2.398245-7.5078126 5.646485-2.9414408 5.094723-1.6292935 12.383093 4.2226566 15.761718 5.377299 3.101896 12.435153 1.50713 15.560546-3.90625.820943-1.419326 1.650804-2.867755 2.501954-4.339844.773462-1.177075-1.086207-2.258377-1.726563-1.003906-.851111 1.472013-1.688888 2.920631-2.509765 4.339844-2.557457 4.429682-8.362011 5.751201-12.830079 3.173828-4.570453-2.638904-6.1308843-8.458638-3.4921871-13.029297 1.6286271-2.820888 3.7962561-4.226042 6.1582031-4.671875 2.361947-.445871 4.968908.113304 7.367187 1.498047 2.560381 1.472949 5.126237 2.956913 7.6875 4.435547 1.855286 3.05399 3.750081 6.401784 5.355469 9.177734 3.12431 5.41149 10.349917 7.453895 15.775391 4.324219 6.356331-3.669829 6.866388-11.180688 4.222656-15.759765-1.875352-3.24824-4.586498-5.095052-7.507812-5.646485-2.879657-.54357-5.911167.137467-8.621094 1.671875-1.6132.905871-3.236516 1.859794-4.847656 2.791016 5.474447-9.475035 11.234121-19.451589 17.064453-29.554688 1.990824-3.44829.803635-7.8705751-2.644531-9.8613279l-6.103516-3.5292969c-2.312628-1.20442957-3.940894-.109991-4.673828 1.9199219l-13.132813 31.5781249c-3.98639-6.901405-8.08729-14.001877-12.185547-21.103516-1.645089-2.932167-.238992-5.9066224 1.910157-7.1308469l6.113281-3.5292969c.977093-.5494802 1.518317.09707 1.808594.9160157l5.691406 13.6855471c.485034 1.293546 2.420966.488444 1.845703-.767578l-5.677734-13.6484499c-.887918-2.50178664-3.003619-2.88915897-4.671875-1.9199219zm21.96875 1.7363282 6.111328 3.5273437c2.518567 1.4540599 3.366256 4.6043699 1.912109 7.1230469-6.405397 11.110129-12.979972 22.490197-18.652344 32.304688l-6.988281-4.033204 15.808594-38.0078121c.43798-1.1659486 1.014606-1.3863268 1.808594-.9140625zm-11.876954 30.0585936c-1.54212.890381-2.079841 2.893424-1.189453 4.435547.890363 1.542085 2.895361 2.072022 4.4375 1.181641 1.542143-.890344 2.077783-2.887527 1.1875-4.429688-1.065929-1.737699-3.0334-2.008134-4.435547-1.1875zm2.701172 2.183594c.349924.606161.149034 1.355169-.457031 1.705078-.606039.349984-1.349298.148827-1.699219-.457031-.349908-.60601-.154949-1.347282.451172-1.697266.744348-.461365 1.455584.01708 1.705078.449219zm14.962891 6.474609c2.361948.445833 4.519815 1.850987 6.148437 4.671875 2.6387 4.570659 1.08022 10.390393-3.490234 13.029297-4.419893 2.549594-10.494191.837784-13.052734-3.59375-1.443961-2.496531-3.145076-5.436803-4.710938-8.146484l7.730469-4.462891c2.7498-1.567069 5.283829-1.889803 7.375-1.498047zm-34.15625 7.285156c-1.18313 2.049374-.477059 4.701585 1.572266 5.884766 2.049339 1.183143 4.699596.47707 5.882812-1.572266 1.183227-2.049333.47709-4.701508-1.572265-5.884765-2.1915-1.11755-4.58769-.52287-5.882813 1.572265zm29.888672-1.572265c-2.049366 1.183257-2.755488 3.835432-1.572266 5.884765 1.183215 2.049336 3.835423 2.755409 5.884766 1.572266 2.049343-1.183181 2.75539-3.835392 1.572265-5.884766-1.335872-2.247169-3.955109-2.658045-5.884765-1.572265zm-25.009766 1.734375c1.113336.642784 1.492388 2.033187.84961 3.146484-.642766 1.11326-2.039076 1.490365-3.152344.847656-1.113292-.642782-1.492353-2.039008-.849609-3.152343.799882-1.251284 2.236517-1.421387 3.152343-.841797zm29.166016.841797c.642743 1.113373.265637 2.509561-.847656 3.152343-1.113272.642709-2.50177.265453-3.144532-.847656-.64278-1.113297-.273514-2.5037.839844-3.146484 1.315409-.722267 2.597234-.119681 3.152344.841797z" fill="#00003a" transform="matrix(.265 0 0 .265 0 280.067)" font-variant-ligatures="normal" font-variant-position="normal" font-variant-caps="normal" font-variant-numeric="normal" font-variant-alternates="normal" font-feature-settings="normal" text-indent="0" text-align="start" text-decoration-line="none" text-decoration-style="solid" text-decoration-color="#000000" text-transform="none" text-orientation="mixed" white-space="normal" shape-padding="0" isolation="auto" mix-blend-mode="normal" solid-color="#000000" solid-opacity="1" vector-effect="none"/></g></svg>