<svg id="svg4593" height="512" viewBox="0 0 16.933333 16.933334" width="512" xmlns="http://www.w3.org/2000/svg" xmlns:svg="http://www.w3.org/2000/svg"><clipPath id="clipPath5337"><path id="rect5339" d="m34.774 274.321h35.435v25.702h-35.435z"/></clipPath><clipPath id="clipPath4542"><path id="rect4544" d="m-535.214-48.848h501.574v185.586h-501.574z"/></clipPath><clipPath id="clipPath11017"><path id="rect11019" d="m36.669 153.503h29.654v28.999h-29.654z" transform="rotate(-90)" vector-effect="none"/></clipPath><clipPath id="clipPath11444"><path id="rect11446" d="m-143.933 265.779h28.84v29.104h-28.84z" transform="rotate(-90)" vector-effect="none"/></clipPath><clipPath id="clipPath11781"><rect id="rect11783" height="32.411" rx=".634" transform="rotate(-90)" width="32.941" x="-145.124" y="181.377"/></clipPath><clipPath id="clipPath11499"><path id="rect11501" d="m-551.399-9.261h16.064v16.347h-16.064z" vector-effect="none"/></clipPath><g id="layer1" transform="scale(.265)"><path id="rect6091" d="m32 2c-10.637495.1971024-14.43885 3.6802976-16.548828 8.712891-1.532881 4.439976-1.378898 6.914255.65039 10.095703l-2.99414 18.908203c-.410225 2.590598.771857 5.314316 2.625 6.935547 3.554191-1.986625 7.72912-3.743764 10.978516-5.238282 0-1.314064-.01367-2.592323-.01367-3.886718-4.48712-2.017093-7.601563-6.510459-7.601563-11.765625v-2.261719c7.599133 3.352676 16.626332-5.966322 19.619141-9.880859l6.185547 11.136718c.0081.312005.0039.676172.0039 1.005866 0 5.255166-3.114444 9.748532-7.601563 11.765625.0034 1.274134-.02863 2.632734-.02863 3.886718 3.945823 1.886857 8.051869 2.959166 11.638002 4.671876 1.401094-1.624709 2.303869-4.326852 1.980469-6.369141l-2.761712-17.435553c2.120654-4.242477 1.314998-12.4628906-3.230468-12.4628906 0 0-.883009-7.8183594-12.900391-7.8183594z" fill="#ffc100" vector-effect="none"/><path id="path5141" d="m29.847656 45.898438-2.355468 2.630859 1.673828 2.886719-1.351563 10.583984h8.335938l-1.316407-10.583984 1.673828-2.886719-2.355468-2.630859c-1.497718.631233-2.888348.5825-4.304688 0z" fill="#ffc100" vector-effect="none"/><path id="path5184" d="m20.011719 3.6835938c-5.688833 3.7066407-8.401393 11.7440752-4.960942 17.3574102l-2.93164 18.519531c-.414763 2.61926.447861 5.142287 2.121093 6.947265-5.1709393 4.954882-5.1534793 9.596582-5.14648 15.4922-.00211.553024.4450197 1.002775.998047 1.003906h44.224609c.552263-.0022.9982-.451642.996094-1.003906.051619-6.024831-.167033-12.499077-5.011719-16.148438 1.306558-1.735495 1.946899-3.974537 1.580078-6.291015l-2.716797-17.154297c.68438-1.505172 1.044513-3.287797 1.083985-5.095703-.047436-3.638531-.930391-7.6837671-4.478516-8.0859376-.043464-.295937-.285457-1.9631705-2.060547-3.9765625-4.438891-5.0741558-17.112933-5.38843134-23.697265-1.5644531zm22.197261 2.8847656c1.532485 1.7382425 1.699219 3.359375 1.699219 3.359375.05498.5084436.484687.8934936.996094.8925776 2.954937.334909 3.378631 3.964887 3.34375 6.445313-.203963 2.69239-.524154 5.045811-2.9375 6.171875-1.346271-2.423874-2.694295-4.846774-4.039059-7.271484-.615604-1.261195-2.489125-.225002-1.748046.966796 1.451807 2.634246 2.919033 5.259976 4.380859 7.888672v.742188c0 6.612623-5.291861 11.90625-11.904297 11.90625-6.612439 0-11.904297-5.293627-11.904297-11.90625v-.8125c1.387287.384303 2.999217.433979 4.810547-.02344 9.222117-2.328793 14.646484-10.761718 14.646484-10.761718.729166-1.117187-.946615-2.210937-1.675781-1.09375 0 0-5.186067 7.831267-13.464844 9.921875-3.925781.696252-6.417839.198572-8.283203-4.074219-1.503461-5.233804.500246-10.7947359 4.910156-13.5175762 4.484749-2.7548755 15.88635-4.62752464 21.169918 1.1660156zm-25.453121 16.5078126c.440633.419127.909288.71062 1.339844 1.007809v1.677735c0 5.413817 3.09136 10.088903 7.601563 12.386719v2.613281c-3.308953 1.375998-6.694462 3.03537-9.791016 4.597656-1.402539-1.377079-2.144563-3.37697-1.810547-5.486328zm30.75 1.660156 2.398438 15.136719c.293686 1.854685-.243293 3.623977-1.332031 4.962891-3.45761-1.470851-7.506824-2.995869-10.328125-4.095704-.638875-.263022-1.829256-.09089-2.014638 1.124937-.374763 2.00252-2.107653 3.488345-4.229503 3.488345-2.401456 0-4.302734-1.903214-4.302734-4.304688v-2.066406c1.355592.440433 2.799253.685547 4.302734.685547 7.686105 0 13.904297-6.220316 13.904297-13.90625v-.15625c.594691-.1647 1.130422-.466527 1.601562-.869141zm-21.548828 18.095703c.397116 1.342846 1.231187 2.497015 2.335938 3.304688-1.095646 1.208959-2.139393 2.389467-3.22461 3.601562-1.439429-1.717398-1.22851-3.898258-1.216797-5.990234zm12.085938.0039 2.107422.914062c.05585 2.25611.103959 4.809688-1.21875 5.996094-1.080557-1.216036-2.147143-2.399506-3.228516-3.607422 1.105614-.806996 1.941781-1.959993 2.339844-3.302734zm4.109375 1.697265c5.272086 1.631774 8.943451 2.171975 10.591797 8.976563.627462 2.696504.518915 5.382039.501953 7.492187h-8.75586v-6.458984c.01-.566076-.451502-1.02756-1.017578-1.017578-.552298.0097-.99216.465281-.982422 1.017578v6.458984h-5.453125l-1.171875-9.373047.814454-1.404297 1.603515 1.794922c.308066.342906.810605.430831 1.216797.212891 2.686898-1.986746 2.659966-4.895967 2.652344-7.699219zm-20.304688.164063c-.01936 2.705346.188841 5.983131 2.652344 7.535156.404752.214835.90373.127111 1.210938-.212891l1.607421-1.798828.814453 1.402344-1.203124 9.378906h-6.623047v-6.458984c.0099-.562964-.446743-1.023106-1.009766-1.017578-.555368.0054-.999966.462269-.990234 1.017578v6.458984h-7.115235c-.0023-2.074167-.06575-4.6757.701172-7.314453 1.965577-6.101986 5.1552-6.641918 9.955078-8.990234zm8.289063 2.375c1.288853.413113 2.587951.457254 3.726562 0l1.414063 1.582031-1.017578 1.763672h-4.517578l-1.023438-1.761712zm-.0918 5.345703h3.904297l1.070312 8.583984h-6.072265z" fill="#00003a" font-variant-ligatures="normal" font-variant-position="normal" font-variant-caps="normal" font-variant-numeric="normal" font-variant-alternates="normal" font-feature-settings="normal" text-indent="0" text-align="start" text-decoration-line="none" text-decoration-style="solid" text-decoration-color="#000000" text-transform="none" text-orientation="mixed" white-space="normal" shape-padding="0" isolation="auto" mix-blend-mode="normal" solid-color="#000000" solid-opacity="1" vector-effect="none"/></g></svg>