<svg id="svg4593" height="512" viewBox="0 0 16.933333 16.933334" width="512" xmlns="http://www.w3.org/2000/svg" xmlns:svg="http://www.w3.org/2000/svg"><clipPath id="clipPath5337"><path id="rect5339" d="m34.774 274.321h35.435v25.702h-35.435z"/></clipPath><clipPath id="clipPath4542"><path id="rect4544" d="m-535.214-48.848h501.574v185.586h-501.574z"/></clipPath><clipPath id="clipPath11017"><path id="rect11019" d="m36.669 153.503h29.654v28.999h-29.654z" transform="rotate(-90)" vector-effect="none"/></clipPath><clipPath id="clipPath11444"><path id="rect11446" d="m-143.933 265.779h28.84v29.104h-28.84z" transform="rotate(-90)" vector-effect="none"/></clipPath><clipPath id="clipPath11781"><rect id="rect11783" height="32.411" rx=".634" transform="rotate(-90)" width="32.941" x="-145.124" y="181.377"/></clipPath><clipPath id="clipPath11499"><path id="rect11501" d="m-551.399-9.261h16.064v16.347h-16.064z" vector-effect="none"/></clipPath><g id="layer1" transform="translate(0 -280.067)"><path id="path1965-9" d="m5.847882 286.25898a2.6760032 2.6760032 0 0 1 -2.676 2.67602 2.6760032 2.6760032 0 0 1 -2.676-2.67602 2.6760032 2.6760032 0 0 1 2.676-2.676 2.6760032 2.6760032 0 0 1 2.676 2.676z" fill="#ffc100" vector-effect="none"/><path id="circle2163-4" d="m3.171362 283.31819c1.62091 0 2.94141 1.3205 2.94141 2.94142.00001 1.6209-1.3205 2.93944-2.94141 2.93944-.96691 0-1.8277-.46887-2.36328-1.1914-.0952-.12842-.18031-.26486-.2539-.40821a.26460982.26460982 0 1 1 .4707-.24023c.0603.11748.13087.2286.20898.33398.43952.59294 1.14119.97656 1.9375.97656 1.33492 0 2.41212-1.07523 2.41211-2.41014 0-1.33493-1.07719-2.41212-2.41211-2.41212s-2.41014 1.07719-2.41015 2.41212a.26465.26465 0 1 1 -.5293 0c.00001-1.6209 1.31854-2.94142 2.93945-2.94142z" fill="#00003a" font-variant-ligatures="normal" font-variant-position="normal" font-variant-caps="normal" font-variant-numeric="normal" font-variant-alternates="normal" font-feature-settings="normal" text-indent="0" text-align="start" text-decoration-line="none" text-decoration-style="solid" text-decoration-color="#000000" text-transform="none" text-orientation="mixed" white-space="normal" shape-padding="0" isolation="auto" mix-blend-mode="normal" solid-color="#000000" solid-opacity="1" vector-effect="none"/><path id="path4510-3" d="m1.343072 293.49151c-.43974 0-.79375.354-.79375.79374v2.18541h2.75849v-2.18541c0-.43974-.35402-.79374-.79375-.79374z" fill="#ffc100" vector-effect="none"/><path id="rect4480-7" d="m14.458032 280.59411c-.43974 0-.79375.35401-.79375.79374v15.08281h2.75849v-15.08281c0-.43973-.35401-.79374-.79375-.79374z" fill="#ffc100" vector-effect="none"/><g fill="#00003a"><path id="path4512-8" d="m6.9071727 285.34524 5.3962803-3.74246c.210763-.14577.112017-.47605-.144147-.48219l-1.827893-.0513c-.3703257-.0288-.3852813.53764-.01395.52835l1.021471.0291-4.7321255 3.28314c-.2617321.19582.024438.61438.3003437.43545z" font-variant-ligatures="normal" font-variant-position="normal" font-variant-caps="normal" font-variant-numeric="normal" font-variant-alternates="normal" font-feature-settings="normal" text-indent="0" text-align="start" text-decoration-line="none" text-decoration-style="solid" text-decoration-color="#000000" text-transform="none" text-orientation="mixed" white-space="normal" shape-padding="0" isolation="auto" mix-blend-mode="normal" solid-color="#000000" solid-opacity="1" vector-effect="none"/><path id="path4501-2" d="m15.628412 280.33003c.58174 0 1.05834.47659 1.05834 1.05833v15.08246c0 .14736-.09305.2654-.26376.2654h-15.875c-.12445613 0-.26352-.0599-.26352-.2654v-2.18612c0-.58175.47711-1.05833 1.05885-1.05833h1.16943c.58174 0 1.05885.47658 1.05885 1.05833v1.92236h1.08573v-5.42806c0-.58174.47711-1.05833 1.05885-1.05833h1.17202c.58174 0 1.05833.47659 1.05833 1.05833v4.56251c0 .35286-.52917.35286-.52917 0v-4.56251c0-.29774-.23143-.52917-.52916-.52917h-1.17202c-.29774 0-.52917.23143-.52917.52917v5.42809h3.84576v-10.02574c0-.58174.47659-1.05627 1.05833-1.05627h1.16996c.58174 0 1.05833.47453 1.05833 1.05627v10.02574h1.08055v-14.81873c0-.58174.4766-1.05833 1.05834-1.05833zm0 .52916h-1.16995c-.29774 0-.52917.23143-.52917.52917v14.81873h2.22829v-14.81873c0-.29774-.23143-.52917-.52917-.52917zm-4.36717 4.79506h-1.16996c-.29773 0-.52916.22936-.52916.5271v10.02574h2.22828v-10.02574c0-.29774-.23143-.5271-.52916-.5271zm-8.74831 8.10131h-1.16943c-.29774 0-.52969.23143-.52969.52917v1.92236h2.22881v-1.92236c0-.29774-.23195-.52917-.52969-.52917z" font-variant-ligatures="normal" font-variant-position="normal" font-variant-caps="normal" font-variant-numeric="normal" font-variant-alternates="normal" font-feature-settings="normal" text-indent="0" text-align="start" text-decoration-line="none" text-decoration-style="solid" text-decoration-color="#000000" text-transform="none" text-orientation="mixed" white-space="normal" shape-padding="0" isolation="auto" mix-blend-mode="normal" solid-color="#000000" solid-opacity="1" vector-effect="none"/><g id="g17944-9-5-6" transform="translate(-10.025 -6.438)"><path id="path17936-4-12-7" d="m31 12.923828c-.5.01827-1 .393377-1 1.070313v.404297c-3.911113 1.1806-2.935428 6.976562.960938 6.976562 2.171456 0 1.888164 3.171875.117187 3.171875-.841716 0-1.425295-.396862-1.638672-1.193359-.330511-1.314014-2.303708-.785835-1.933594.517578.334571 1.248675 1.314685 2.164786 2.494141 2.498047v.173828c-.03026 1.363256 2.030259 1.363256 2 0v-.197266c3.937499-1.547319 2.58041-6.970703-.958984-6.970703-2.211733 0-1.922563-3.201172-.128907-3.201172.982643 0 1.454279.490756 1.650391 1.222656.324844 1.330475 2.324264.789218 1.933594-.523437-.334638-1.248923-1.316324-2.164956-2.496094-2.498047v-.380859c0-.750008-.5-1.088581-1-1.070313z" fill="#00003a" transform="matrix(.265 0 0 .265 4.994 287.34)" font-variant-ligatures="normal" font-variant-position="normal" font-variant-caps="normal" font-variant-numeric="normal" font-variant-alternates="normal" font-feature-settings="normal" text-indent="0" text-align="start" text-decoration-line="none" text-decoration-style="solid" text-decoration-color="#000000" text-transform="none" text-orientation="mixed" white-space="normal" shape-padding="0" isolation="auto" mix-blend-mode="normal" solid-color="#000000" solid-opacity="1" vector-effect="none"/></g></g></g></svg>