<svg id="svg4593" height="512" viewBox="0 0 16.933333 16.933334" width="512" xmlns="http://www.w3.org/2000/svg" xmlns:svg="http://www.w3.org/2000/svg"><clipPath id="clipPath5337"><path id="rect5339" d="m34.774 274.321h35.435v25.702h-35.435z"/></clipPath><clipPath id="clipPath4542"><path id="rect4544" d="m-535.214-48.848h501.574v185.586h-501.574z"/></clipPath><clipPath id="clipPath11017"><path id="rect11019" d="m36.669 153.503h29.654v28.999h-29.654z" transform="rotate(-90)" vector-effect="none"/></clipPath><clipPath id="clipPath11444"><path id="rect11446" d="m-143.933 265.779h28.84v29.104h-28.84z" transform="rotate(-90)" vector-effect="none"/></clipPath><clipPath id="clipPath11781"><rect id="rect11783" height="32.411" rx=".634" transform="rotate(-90)" width="32.941" x="-145.124" y="181.377"/></clipPath><clipPath id="clipPath11499"><path id="rect11501" d="m-551.399-9.261h16.064v16.347h-16.064z" vector-effect="none"/></clipPath><g id="layer1" transform="translate(0 -280.067)"><path id="path5616" d="m29.789062 2c-2.240394 0-4.042968 1.8045313-4.042968 4.0449219v2.1972656a24.212549 24.212549 0 0 0 -6.078125 2.5722655l-1.591797-1.5917968c-1.584199-1.5841511-4.134551-1.5841511-5.71875 0l-3.1269532 3.1249998c-1.5841992 1.584189-1.5841992 4.136514 0 5.720703l1.6816402 1.681641a24.212549 24.212549 0 0 0 -2.3671871 5.988281h-2.4921875c-2.2403947 0-4.0449219 1.802616-4.0449219 4.042969v4.423828c0 2.240391 1.8045272 4.042969 4.0449219 4.042969h2.6679687a24.212549 24.212549 0 0 0 2.4765629 5.703125l-1.9667972 1.966797c-1.5841992 1.584227-1.5841992 4.134561 0 5.71875l3.1269532 3.126953c1.584199 1.584189 4.134551 1.584189 5.71875 0l2.05664-2.054688a24.212549 24.212549 0 0 0 5.613282 2.273438v2.960937c0 2.240391 1.802574 4.042969 4.042968 4.042969h4.423829c2.240395 0 4.042968-1.802578 4.042968-4.042969v-2.941406a24.212549 24.212549 0 0 0 5.603516-2.304687l2.066406 2.066406c1.584201 1.584189 4.13455 1.584189 5.71875 0l3.128907-3.126953c1.5842-1.584189 1.5842-4.134523 0-5.71875l-1.964844-1.962891a24.212549 24.212549 0 0 0 2.458984-5.707031h2.683594c2.240394 0 4.042969-1.802578 4.042969-4.042969v-4.423828c0-2.240353-1.802575-4.042969-4.042969-4.042969h-2.486328a24.212549 24.212549 0 0 0 -2.388672-5.974609l1.697266-1.695313c1.5842-1.584189 1.5842-4.136514 0-5.720703l-3.128907-3.1249998c-1.5842-1.5841511-4.134549-1.5841511-5.71875 0l-1.591797 1.5917968a24.212549 24.212549 0 0 0 -6.078125-2.5527342v-2.2167969c0-2.2403906-1.802573-4.0449219-4.042968-4.0449219zm2.283204 12.160156a17.902987 17.902987 0 0 1 17.902343 17.902344 17.902987 17.902987 0 0 1 -17.902343 17.902344 17.902987 17.902987 0 0 1 -17.904297-17.902344 17.902987 17.902987 0 0 1 17.904297-17.902344z" fill="#ffc100" transform="matrix(.265 0 0 .265 0 280.067)" vector-effect="none"/><g fill="#00003a"><path id="circle2163-25" d="m8.4667969 284.92969c-1.9858947 0-3.6015596 1.61567-3.6015625 3.60156a.2646484.2646484 0 1 0 .5292968 0c.0000025-1.69991 1.3723543-3.07227 3.0722657-3.07227 1.6999121 0 3.0722631 1.37236 3.0722651 3.07227.000003 1.69992-1.372349 3.07227-3.0722651 3.07227-1.0140428 0-1.9107823-.48876-2.4707031-1.24414-.099523-.13429-.186835-.27805-.2636719-.42774a.26467783.26467783 0 1 0 -.4707031.24219c.090131.17559.193978.34272.3105468.5.6559832.88498 1.709892 1.45898 2.8945313 1.45898 1.9858991 0 3.6015661-1.61566 3.6015621-3.60156-.000003-1.98589-1.615667-3.60156-3.6015621-3.60156z" font-variant-ligatures="normal" font-variant-position="normal" font-variant-caps="normal" font-variant-numeric="normal" font-variant-alternates="normal" font-feature-settings="normal" text-indent="0" text-align="start" text-decoration-line="none" text-decoration-style="solid" text-decoration-color="#000000" text-transform="none" text-orientation="mixed" white-space="normal" shape-padding="0" isolation="auto" mix-blend-mode="normal" solid-color="#000000" solid-opacity="1" vector-effect="none"/><path id="path5817" d="m7.8808594 280.33203c-.7347729 0-1.3339844.59921-1.3339844 1.33399v.4082c-.4448481.13549-.872234.31816-1.2792969.54297l-.2988281-.29688c-.5195411-.51952-1.3671776-.51952-1.8867188 0l-.8261718.82617c-.5196449.51965-.5196449 1.36903 0 1.88868l.3242187.32422c-.2074254.40012-.3733884.81829-.4960937 1.25195h-.4824219c-.73477882 0-1.33398438.60117-1.33398438 1.33594v1.16992c0 .73477.59921151 1.33398 1.33398438 1.33398h.5332031c.1323934.41043.3047212.80636.5136719 1.1836l-.3925781.39453c-.5195371.51954-.5195407 1.36718 0 1.88672l.8261718.82812c.51954.51954 1.3671789.51954 1.8867188 0l.421875-.42187c.3700538.1922.7568741.34689 1.15625.46679v.60742c0 .73478.5992115 1.33594 1.3339844 1.33594h1.171875c.734773 0 1.3339846-.60116 1.3339846-1.33594v-.60156c.399227-.12194.784814-.28035 1.154297-.47461l.423828.42383c.51954.51954 1.367178.51954 1.886718 0l.828126-.82812c.519541-.51954.519537-1.36718 0-1.88672l-.394532-.39453c.207781-.37744.378484-.77323.509766-1.1836h.537109c.734773 0 1.335938-.59921 1.335938-1.33398v-1.16992c0-.73477-.601159-1.33594-1.335938-1.33594h-.460937c-.03663-.1281-.07105-.25728-.115235-.38281a.26499934.26499934 0 1 0 -.5.17578c.06206.17631.116314.3555.16211.53711a.26460981.26460981 0 0 0 .257812.19921h.65625c.450764 0 .806641.35589.806641.80665v1.16992c0 .45076-.355872.80469-.806641.80469h-.708984a.26460981.26460981 0 0 0 -.253906.1914c-.14491.50719-.355795.99365-.625 1.44727a.26460981.26460981 0 0 0 .04101.32226l.519532.51953c.318768.31878.318764.81991 0 1.13868l-.828126.82812c-.318765.31876-.819906.31876-1.138671 0l-.546875-.54687a.26460981.26460981 0 0 0 -.316407-.043c-.447387.25351-.925561.44946-1.421875.58398a.26460981.26460981 0 0 0 -.1953121.25586v.77734c0 .45077-.3539179.80665-.8046875.80664h-1.171875c-.4507694 0-.8046875-.35587-.8046875-.80664v-.78125a.26460981.26460981 0 0 0 -.1972657-.25585c-.4968883-.13199-.9752419-.32696-1.4238281-.57813a.26460981.26460981 0 0 0 -.3164062.0449l-.5429688.54297c-.3187655.31876-.8199064.31876-1.1386719 0l-.828125-.82812c-.3187647-.31877-.3187683-.8199 0-1.13868l.5214844-.51953a.26460981.26460981 0 0 0 .039063-.32226c-.2705374-.45315-.4807203-.94007-.6269486-1.44722a.26460981.26460981 0 0 0 -.2558594-.1914h-.7050781c-.4507693 0-.80664063-.35393-.80664062-.80469v-1.16992c0-.45076.35587722-.80665.80664062-.80665h.6601563a.26460981.26460981 0 0 0 .2558593-.20117c.1316361-.53069.3327746-1.04034.5996094-1.51757a.26460981.26460981 0 0 0 -.042969-.31641l-.4453126-.44531c-.3186605-.31866-.3186605-.82002 0-1.13868l.828125-.82812c.3187643-.31876.8199076-.31876 1.1386719 0l.421875.42187a.26460981.26460981 0 0 0 .3222657.041c.4816045-.28681.9998607-.50816 1.5410156-.6543a.26460981.26460981 0 0 0 .1953125-.2539v-.58203c0-.45077.3539181-.80469.8046875-.80469h1.171875c.4507696 0 .8046875.35392.8046875.80469v.58593a.26460981.26460981 0 0 0 .1972661.25586c.540914.14466 1.059159.36326 1.541015.64844a.26460981.26460981 0 0 0 .320313-.041l.421875-.42187c.318764-.31876.819907-.31876 1.138671 0l.828126.82812c.31866.31866.31866.82002 0 1.13868l-.449219.44922a.26460981.26460981 0 1 0 .375.37304l.449219-.44726c.519645-.51965.519645-1.36903 0-1.88868l-.828126-.82617c-.519541-.51952-1.367177-.51952-1.886718 0l-.298828.29688c-.407121-.2234-.834723-.40485-1.279297-.53907v-.4121c0-.73478-.5992116-1.33399-1.3339846-1.33399z" font-variant-ligatures="normal" font-variant-position="normal" font-variant-caps="normal" font-variant-numeric="normal" font-variant-alternates="normal" font-feature-settings="normal" text-indent="0" text-align="start" text-decoration-line="none" text-decoration-style="solid" text-decoration-color="#000000" text-transform="none" text-orientation="mixed" white-space="normal" shape-padding="0" isolation="auto" mix-blend-mode="normal" solid-color="#000000" solid-opacity="1" vector-effect="none"/><path id="path5819" d="m8.4863281 283.54883c-2.7590666 0-5.0019462 2.24288-5.0019531 5.00195-.0000047 2.75908 2.2428783 5 5.0019531 5 2.7590749 0 5.0000049-2.24092 4.9999999-5-.000007-2.75907-2.240933-5.00195-4.9999999-5.00195zm0 .52929c2.4730839.00001 4.4706969 1.99958 4.4707029 4.47266.000004 2.47309-1.997611 4.4707-4.4707029 4.4707-2.4730915 0-4.4726605-1.99761-4.4726562-4.4707.0000062-2.47308 1.9995721-4.47266 4.4726562-4.47266z" font-variant-ligatures="normal" font-variant-position="normal" font-variant-caps="normal" font-variant-numeric="normal" font-variant-alternates="normal" font-feature-settings="normal" text-indent="0" text-align="start" text-decoration-line="none" text-decoration-style="solid" text-decoration-color="#000000" text-transform="none" text-orientation="mixed" white-space="normal" shape-padding="0" isolation="auto" mix-blend-mode="normal" solid-color="#000000" solid-opacity="1" vector-effect="none"/><path id="path8125-5-3-7-6" d="m8.2015568 286.88221v.10697c-1.03482.31237-.77667 1.84589.25425 1.84589.57453 0 .49957.83922.031.83922-.22271 0-.37711-.105-.43357-.31574-.0875-.34767-.60952-.20792-.5116.13694.0885.33038.34785.57277.65991.66094v.046c-.008.3607.53717.3607.52917 0v-.0522c1.04179-.40939.68273-1.84433-.25373-1.84433-.58519 0-.50868-.84698-.0341-.84698.25999 0 .38477.12985.43666.3235.0859.35202.61496.20881.5116-.1385-.0885-.33044-.34828-.57281-.66043-.66094v-.10077c0-.42481-.52916-.35242-.52916 0z" font-variant-ligatures="normal" font-variant-position="normal" font-variant-caps="normal" font-variant-numeric="normal" font-variant-alternates="normal" font-feature-settings="normal" text-indent="0" text-align="start" text-decoration-line="none" text-decoration-style="solid" text-decoration-color="#000000" text-transform="none" text-orientation="mixed" white-space="normal" shape-padding="0" isolation="auto" mix-blend-mode="normal" solid-color="#000000" solid-opacity="1" vector-effect="none"/></g></g></svg>