<svg id="svg4593" height="512" viewBox="0 0 16.933333 16.933334" width="512" xmlns="http://www.w3.org/2000/svg" xmlns:svg="http://www.w3.org/2000/svg"><clipPath id="clipPath5337"><path id="rect5339" d="m34.774 274.321h35.435v25.702h-35.435z"/></clipPath><clipPath id="clipPath4542"><path id="rect4544" d="m-535.214-48.848h501.574v185.586h-501.574z"/></clipPath><clipPath id="clipPath11017"><path id="rect11019" d="m36.669 153.503h29.654v28.999h-29.654z" transform="rotate(-90)" vector-effect="none"/></clipPath><clipPath id="clipPath11444"><path id="rect11446" d="m-143.933 265.779h28.84v29.104h-28.84z" transform="rotate(-90)" vector-effect="none"/></clipPath><clipPath id="clipPath11781"><rect id="rect11783" height="32.411" rx=".634" transform="rotate(-90)" width="32.941" x="-145.124" y="181.377"/></clipPath><clipPath id="clipPath11499"><path id="rect11501" d="m-551.399-9.261h16.064v16.347h-16.064z" vector-effect="none"/></clipPath><g id="layer1" transform="translate(0 -280.067)"><path id="path11674-2-1" d="m2.2451717 285.81641a.26464501.26464501 0 1 0 0 .52929h1.47461a.26464501.26464501 0 1 0 0-.52929z" fill="#00003a" font-variant-ligatures="normal" font-variant-position="normal" font-variant-caps="normal" font-variant-numeric="normal" font-variant-alternates="normal" font-feature-settings="normal" text-indent="0" text-align="start" text-decoration-line="none" text-decoration-style="solid" text-decoration-color="#000000" text-transform="none" text-orientation="mixed" white-space="normal" shape-padding="0" isolation="auto" mix-blend-mode="normal" solid-color="#000000" solid-opacity="1" vector-effect="none"/><path id="path11678-9-0" d="m13.260802 285.81641a.26464501.26464501 0 1 0 0 .52929h1.47265a.26464501.26464501 0 1 0 0-.52929z" fill="#00003a" font-variant-ligatures="normal" font-variant-position="normal" font-variant-caps="normal" font-variant-numeric="normal" font-variant-alternates="normal" font-feature-settings="normal" text-indent="0" text-align="start" text-decoration-line="none" text-decoration-style="solid" text-decoration-color="#000000" text-transform="none" text-orientation="mixed" white-space="normal" shape-padding="0" isolation="auto" mix-blend-mode="normal" solid-color="#000000" solid-opacity="1" vector-effect="none"/><g fill="#ffc100"><path id="path1093-2-4" d="m.53022167 287.71514v1.6769c0 .73289.59002003 1.32291 1.32292003 1.32291h1.58233c0-1.72109-1.27664-2.99981-2.90525003-2.99981z" vector-effect="none"/><path id="path1100-8-1" d="m.53022167 284.44712v-1.6769c0-.73289.59002003-1.32292 1.32292003-1.32292h1.58233c0 2.04415-1.46823 2.91991-2.90525003 2.99982z" vector-effect="none"/><path id="path1106-6-7" d="m16.405152 284.44712v-1.6769c0-.73289-.59002-1.32292-1.32292-1.32292h-1.58233c0 1.94808 1.53028 2.99982 2.90525 2.99982z" vector-effect="none"/></g><path id="path8975" d="m13.593602 289.85919c-.0798.29011-.11523.54588-.0937.85577h1.27847c.26971-.34771.022-.85356-.41806-.8537z" fill="#bfd2ff" font-variant-ligatures="normal" font-variant-position="normal" font-variant-caps="normal" font-variant-numeric="normal" font-variant-alternates="normal" font-feature-settings="normal" text-indent="0" text-align="start" text-decoration-line="none" text-decoration-style="solid" text-decoration-color="#000000" text-transform="none" text-orientation="mixed" white-space="normal" shape-padding="0" isolation="auto" mix-blend-mode="normal" solid-color="#000000" solid-opacity="1" vector-effect="none"/><path id="path2456-5-0" d="m11.109574 286.0817a2.6418841 2.6418841 0 0 1 -2.64189 2.64189 2.6418841 2.6418841 0 0 1 -2.641879-2.64189 2.6418841 2.6418841 0 0 1 2.641879-2.64189 2.6418841 2.6418841 0 0 1 2.64189 2.64189z" fill="#ffc100" vector-effect="none"/><path id="path2464-9-1" d="m8.467684 283.17488c-1.60206 0-2.906279 1.30421-2.906279 2.90628 0 1.60206 1.304219 2.90629 2.906279 2.90629 1.60207 0 2.90629-1.30422 2.90629-2.90629s-1.30422-2.90629-2.90629-2.90628zm0 .52968c1.31609 0 2.37712 1.06051 2.37712 2.3766 0 1.31608-1.06103 2.37712-2.37712 2.37712-.67496 0-1.28155-.28028-1.71359-.72967.26302-.39686.6558-.66037 1.12345-.79892.2047-.0594.26681-.36945.1018-.50436-.17783-.14619-.2811-.36357-.28112-.59377.00005-.4278.34165-.76993.76946-.76997.42781.00004.76942.34217.76947.76997-.000344.23-.10337.44577-.28112.5917-.16507.13426-.112029.39845.092.45889.1962.0582.3813.14496.5488.2558.29859.21624.60735-.25211.29094-.44132-.1331-.0881-.22105-.14068-.36948-.20309.13825-.20946.24818-.40561.24856-.66198 0-.73478-.56324-1.29914-1.29915-1.29914-.71375.00007-1.29855.5854-1.29862 1.29914.00001.28138.0964.50855.26096.73019-.40723.17383-.747.40133-1.00872.72761-.20887-.35395-.33022-.76612-.33021-1.2082 0-1.41624 1.136368-2.3391 2.37657-2.3766z" fill="#00003a" font-variant-ligatures="normal" font-variant-position="normal" font-variant-caps="normal" font-variant-numeric="normal" font-variant-alternates="normal" font-feature-settings="normal" text-indent="0" text-align="start" text-decoration-line="none" text-decoration-style="solid" text-decoration-color="#000000" text-transform="none" text-orientation="mixed" white-space="normal" shape-padding="0" isolation="auto" mix-blend-mode="normal" solid-color="#000000" solid-opacity="1" vector-effect="none"/><path id="path1965" d="m16.40506 292.28149a3.3368753 3.3368753 0 0 1 -3.33687 3.33688 3.3368753 3.3368753 0 0 1 -3.33688-3.33688 3.3368753 3.3368753 0 0 1 3.33688-3.33687 3.3368753 3.3368753 0 0 1 3.33687 3.33687z" fill="#ffc100" vector-effect="none"/><path id="path5054" d="m12.802774 290.62545v.10697c-1.03482.31236-.77667 1.84588.25425 1.84588.57453 0 .49957.83922.031.83922-.22271 0-.37711-.105-.43357-.31574-.0874-.34767-.60952-.20792-.5116.13694.0885.33038.34785.57277.65991.66095v.046c-.008.36069.53718.36069.52917 0v-.0522c1.0418-.40939.68273-1.84433-.25373-1.84433-.58519 0-.50868-.84697-.0341-.84697.25999 0 .38478.12984.43666.32349.0859.35202.61497.20881.5116-.13849-.0885-.33045-.34828-.57281-.66042-.66094v-.10077c0-.38269-.52917-.36025-.52917-.00001z" fill="#00003a" font-variant-ligatures="normal" font-variant-position="normal" font-variant-caps="normal" font-variant-numeric="normal" font-variant-alternates="normal" font-feature-settings="normal" text-indent="0" text-align="start" text-decoration-line="none" text-decoration-style="solid" text-decoration-color="#000000" text-transform="none" text-orientation="mixed" white-space="normal" shape-padding="0" isolation="auto" mix-blend-mode="normal" solid-color="#000000" solid-opacity="1" vector-effect="none"/><path id="path1098-4-3" d="m1.8526001 281.18389c-.87490001 0-1.58801677.71106-1.58801677 1.58595v6.62286c0 .87489.71311676 1.58801 1.58801677 1.58801h7.8610189c-.1572673.4041-.2470111.84166-.2470135 1.3007a.2648417.2648417 0 1 0 .5296834 0c.0000093-1.69991 1.3722451-3.07217 3.0721641-3.07217 1.699909 0 3.072164 1.37226 3.072164 3.07217.000009 1.69991-1.372255 3.07216-3.072164 3.07216-1.014041 0-1.910731-.48899-2.47065-1.24437-.09951-.13425-.187215-.27766-.264067-.42736a.2646754.2646754 0 0 0 -.4707722.24185c.090129.17556.1939892.34294.3105752.50022.655982.88498 1.710276 1.45883 2.894914 1.45883 1.985892 0 3.601341-1.61543 3.60133-3.60133 0-.64327-.171476-1.24615-.468188-1.7694.287158-.2874.467155-.68187.467155-1.11931v-6.62286c0-.87489-.710523-1.58595-1.585433-1.58595zm0 .5271h11.3848349c.0782 1.58516 1.329158 2.86529 2.902148 2.98949v2.76158c-.947787.0749-1.773662.57344-2.301151 1.30225-.248341-.0543-.505573-.0848-.769979-.0848-1.317362 0-2.468479.71361-3.096452 1.77199h-6.2761026c-.0791-1.585-1.3290584-2.86613-2.90214841-2.98949v-2.75952c1.32315001-.10312 2.42096261-1.02351 2.78329251-2.25872.0527-.17273-.078896-.34667-.2594157-.3421-.1161696.003-.2167967.0813-.2480469.19327-.2974496 1.01403-1.1893999 1.77481-2.27582991 1.87637v-1.40147c0-.59089.46795011-1.05885 1.05885011-1.05885zm11.9140009 0h1.316716c.5909 0 1.056266.46796 1.056266 1.05885v1.40147c-1.28589-.12072-2.296902-1.16181-2.372982-2.46032zm-12.97285101 6.28024c1.28642001.11974 2.29807901 1.16173 2.37504871 2.46032h-1.3161986c-.5909 0-1.05885011-.46797-1.05885011-1.05885zm15.34583301 0v1.40147c0 .25732-.09018.4893-.239262.67076-.396213-.50481-.923275-.90041-1.530656-1.13689.431242-.51887 1.058128-.86838 1.769918-.93534z" fill="#00003a" font-variant-ligatures="normal" font-variant-position="normal" font-variant-caps="normal" font-variant-numeric="normal" font-variant-alternates="normal" font-feature-settings="normal" text-indent="0" text-align="start" text-decoration-line="none" text-decoration-style="solid" text-decoration-color="#000000" text-transform="none" text-orientation="mixed" white-space="normal" shape-padding="0" isolation="auto" mix-blend-mode="normal" solid-color="#000000" solid-opacity="1" vector-effect="none"/></g></svg>