<svg id="svg4593" height="512" viewBox="0 0 16.933333 16.933334" width="512" xmlns="http://www.w3.org/2000/svg" xmlns:svg="http://www.w3.org/2000/svg"><clipPath id="clipPath5337"><path id="rect5339" d="m34.774 274.321h35.435v25.702h-35.435z"/></clipPath><clipPath id="clipPath4542"><path id="rect4544" d="m-535.214-48.848h501.574v185.586h-501.574z"/></clipPath><g id="layer1" transform="scale(.265)"><path id="rect6716" d="m40.537109 2c-1.108002 0-2 .8919937-2 2v30.382812l17.058594 17.058594v-47.441406c0-1.1080063-.892001-2-2-2z" fill="#ffc100" paint-order="normal"/><path id="path8104" d="m1 4.8691406v51.8808594c0 4.028526 2.3499952 6.25 6.2421875 6.25h51.8886695c3.98365 0 5.023361-4.414139 2.501952-6.935547l-5.035153-5.035156v-47.029297c0-1.6446992-1.353366-2.9960938-2.998047-2.9960938h-13.066406c-1.644684 0-2.996094 1.3513946-2.996094 2.9960938v24.5c.02899 1.30402 1.971009 1.30402 2 0v-24.5c0-.5713134.424777-.9960938.996094-.9960938h13.066406c.571314 0 .996094.4247804.996094.9960938v4.6796875c-1.789942-.0000026-3.598334 0-5.380856 0-1.334635.063802-1.238932 2.0657555.0957 2.0019535h5.285156v5.691406h-3.232422c-1.362434-.02942-1.362434 2.029419 0 2h3.232422v5.632812h-3.232422c-1.363604-.03062-1.363604 2.030615 0 2h3.232422v4.998047c-1.107076-.000009-2.237277 0-3.335937 0-1.302529.09647-1.202014 2.038511.103515 2h3.232422v5.728516h-5.285156c-1.363604-.03061-1.363604 2.030615 0 2h5.285156v8.294922l-46.6601561-46.6601565c-2.7560853-2.75608525-6.9355469-1.0302894-6.9355469 2.5019531zm5.5214844-1.0878906 4.6874996 4.6875-3.693359 3.695312c-.986768.943756.4708998 2.403435 1.4160156 1.417969l3.6914064-3.6992185 4.027344 4.0273435-2.248047 2.248047c-.945312.945312.472656 2.363281 1.417968 1.417969l2.244141-2.251953 3.984375 3.984375-2.25 2.246094c-1.027812.9431.472916 2.443827 1.416016 1.416015l2.246094-2.25 3.53125 3.53125-2.248047 2.248047c-.945312.945312.472656 2.363281 1.417968 1.417969l2.244141-2.251953 4.052734 4.052734-3.691406 3.699219c-1.110637.936464.475232 2.520137 1.410156 1.408203l3.697266-3.691406 4.023438 4.023437-2.244141 2.251953c-1.093931.937079.473077 2.504087 1.410156 1.410156l2.251953-2.24414 3.982422 3.982422-2.248047 2.248047c-1.093921.937081.473077 2.504078 1.410157 1.410156l2.251953-2.244141 3.529297 3.529297-2.246094 2.25c-1.093931.937079.473077 2.504087 1.410156 1.410156l2.251953-2.24414 4.927735 4.927734-3.695313 3.695313c-1.026363.939052.466857 2.438476 1.410156 1.416015l3.699219-3.697265 4.21875 4.21875c1.433263 1.433263.907335 3.521484-1.087891 3.521484-17.29362 0-34.587239 0-51.880859 0-2.6898275 0-4.25-1.247297-4.25-4.25v-51.8808594c0-2.3878312 2.4463869-2.1629881 3.5214844-1.0878906zm7.3828126 29.035156v14.625c0 1.64306 1.296196 2.626953 2.671875 2.626953.499306.000001 1.000142 0 1.499988 0 1.352332.01913 1.352332-2.019135 0-2h-1.484375c-.576115.01323-.6875-.357958-.6875-.626953v-14.207031l14.833984 14.833984h-7.609375c-1.352332-.01913-1.352332 2.019135 0 2h8.027344c1.568614 0 2.534733-1.901248 1.216797-3.193359l-15.275379-15.275391c-1.264068-1.264698-3.158203-.363946-3.193359 1.216797z" fill="#00003a" font-variant-ligatures="normal" font-variant-position="normal" font-variant-caps="normal" font-variant-numeric="normal" font-variant-alternates="normal" font-feature-settings="normal" text-indent="0" text-align="start" text-decoration-line="none" text-decoration-style="solid" text-decoration-color="#000000" text-transform="none" text-orientation="mixed" white-space="normal" shape-padding="0" isolation="auto" mix-blend-mode="normal" solid-color="#000000" solid-opacity="1" vector-effect="none" paint-order="normal"/></g></svg>