<svg id="svg4593" height="512" viewBox="0 0 16.933333 16.933334" width="512" xmlns="http://www.w3.org/2000/svg" xmlns:svg="http://www.w3.org/2000/svg"><clipPath id="clipPath5337"><path id="rect5339" d="m34.774 274.321h35.435v25.702h-35.435z"/></clipPath><clipPath id="clipPath4542"><path id="rect4544" d="m-535.214-48.848h501.574v185.586h-501.574z"/></clipPath><g id="layer1" transform="scale(.265)"><path id="rect9635" d="m8.375 2v60h5.152344v-17.625h23.677734v-22.625h-23.677734v-19.75zm37.046875 19.75v22.625h10.203125v-22.625z" fill="#ffc100" paint-order="normal"/><path id="path9679" d="m8.375 1c-.5522646.0000378-.9999622.4477354-1 1-.00292 5.2386934.0005112 9.511697 0 14.90625 0 1.656194 2 1.184489 2 0v-13.90625h3.232422v17.75h-3.232422c-1.1956735 0-2.0000125.385287-2.0000614 2.124997-.0003668 13.587048-.0002504 27.490514.0000614 39.125003.0000756.552265.4477732.999962 1 1h42.25c3.306709 0 6-2.693291 6-6 .01114-16.675137 0-33.330504 0-50 0-3.3066709-2.693291-6-6-6h-.451172c-1.35171-.0188976-1.35171 2.0185197 0 2h.451172c2.233285 0 4 1.7667528 4 4v13.75h-8.201172v-18.75c-.000076-.5522646-.447735-.9999622-1-1-12.352029-.00964746-24.716248 0-37.048828 0zm6.234375 2h21.595703v17.75h-21.595703zm23.595703 0h6.21875v58h-6.21875zm-28.830078 19.75h26.830078v20.625h-26.830078zm37.048828 0h8.201172v20.625h-8.201172zm-37.048828 22.625h3.232422v15.625h-3.232422zm5.234375 0h21.595703v15.625h-21.595703zm31.814453 0h8.201172v11.625c0 2.233323-1.766715 4-4 4h-4.201172z" fill="#00003a" font-variant-ligatures="normal" font-variant-position="normal" font-variant-caps="normal" font-variant-numeric="normal" font-variant-alternates="normal" font-feature-settings="normal" text-indent="0" text-align="start" text-decoration-line="none" text-decoration-style="solid" text-decoration-color="#000000" text-transform="none" text-orientation="mixed" white-space="normal" shape-padding="0" isolation="auto" mix-blend-mode="normal" solid-color="#000000" solid-opacity="1" vector-effect="none" paint-order="normal"/></g></svg>