<svg id="svg4593" height="512" viewBox="0 0 16.933333 16.933334" width="512" xmlns="http://www.w3.org/2000/svg" xmlns:svg="http://www.w3.org/2000/svg"><clipPath id="clipPath5337"><path id="rect5339" d="m34.774 274.321h35.435v25.702h-35.435z"/></clipPath><clipPath id="clipPath4542"><path id="rect4544" d="m-535.214-48.848h501.574v185.586h-501.574z"/></clipPath><clipPath id="clipPath11017"><path id="rect11019" d="m36.669 153.503h29.654v28.999h-29.654z" transform="rotate(-90)" vector-effect="none"/></clipPath><clipPath id="clipPath11444"><path id="rect11446" d="m-143.933 265.779h28.84v29.104h-28.84z" transform="rotate(-90)" vector-effect="none"/></clipPath><clipPath id="clipPath11781"><rect id="rect11783" height="32.411" rx=".634" transform="rotate(-90)" width="32.941" x="-145.124" y="181.377"/></clipPath><clipPath id="clipPath11499"><path id="rect11501" d="m-551.399-9.261h16.064v16.347h-16.064z" vector-effect="none"/></clipPath><g id="layer1" transform="translate(0 -280.067)"><g fill="#ffc100"><path id="path11671-3" d="m32 29.724609c-5.88797 0-10.699776 5.790031-9.875 11.394532l9.875 5.701171 9.873047-5.699218c.412503-6.056027-3.481582-11.396485-9.873047-11.396485z" transform="matrix(.265 0 0 .265 0 280.067)" vector-effect="none"/><path id="path1104-4" d="m10.100627 282.63551h1.6769c.73289 0 1.32292.59002 1.32292 1.32292v1.58233c-1.662042 0-2.99982-1.22385-2.99982-2.90525z" vector-effect="none"/><path id="path1106-8" d="m6.8326066 282.63551h-1.6769c-.73289 0-1.32292.59002-1.32292 1.32292v1.58233c1.9454458 0 2.9586744-1.49415 2.99982-2.90525z" vector-effect="none"/><path id="path2661" d="m2 29.5v27.5c0 2.770016 2.2300001 5 5 5h3.421875l11.525391-20.984375zm60 0-20.126953 11.621094 12.583984 20.878906h2.542969c2.770001 0 5-2.229984 5-5z" transform="matrix(.265 0 0 .265 0 280.067)" vector-effect="none"/></g><path id="path2831" d="m31.216797.99804688c-1.60451.01889762-5.169584.44590702-7.970703 3.65820312-.287463.3296591-2.189003 2.4152312-3.677735 4.0527344h-.08203c-3.30669 0-6 2.6933296-6 5.9999996v.701172c-4.0844729 4.486457-8.1790522 8.978585-12.2636728 13.458985-.2042574.236018-.2226562.537278-.2226562.859375v27.271484c0 3.306709 2.6933012 6 6 6h50c3.306701 0 6-2.693291 6-6v-27.5c-.000742-.769372-.833638-1.249805-1.5-.865234l-10.986328 6.34375v-16.589844c2.875943 3.158598 5.559533 6.101552 8.267578 9.068359.894984 1.0483 2.438973-.360897 1.476562-1.347656-3.248939-3.561008-6.781413-7.437795-9.74414-10.691406v-.708985c0-3.30667-2.69331-5.9999996-6-5.9999996h-.0918c-1.569074-1.7284467-3.330687-3.6659485-3.667966-4.0527344-2.801045-3.2122205-6.366681-3.6414976-7.972656-3.65820312-.669429.001071-1.080226.00042729-1.564453 0zm.02344 2.00000002c.41317.0009827 1.004525-.00145 1.525391.00195 3.021127 0 4.842026 1.1660331 6.480469 2.96875.250965.2878065 1.462617 1.6203864 2.478515 2.7402344h-19.457034c1.00342-1.1036179 2.271933-2.4943637 2.486328-2.7402313 1.768832-1.7968433 3.47142-2.9707031 6.486331-2.9707031zm-11.753909 7.7109371h5.291016c-.451735 4.861709-4.38314 8.680358-9.291016 8.970704v-4.970704c0-2.233247 1.766734-4 4-4zm7.291016 0h10.445312c.464722 5.946509 5.300182 10.671818 11.291016 10.970704v14.453124l-5.548828 3.203126c-.200587-5.880195-5.036977-10.608968-10.964844-10.609376-6.432355 0-10.64727 5.630856-10.964844 10.609329l-17.4589841-10.080032c.677722-.74282 4.9724312-5.451628 9.9101561-10.871093v14.771484c-.01916 1.352353 2.019144 1.352353 2 0v-11.476562c5.990805-.298909 10.826285-5.024223 11.291016-10.970704zm12.445312 0h5.291016c2.233266 0 4 1.766753 4 4v4.970704c-4.907353-.290869-8.83932-4.109341-9.291016-8.970704zm-8.226562 5.316407v5.566406c0 1.333644 2 1.333644 2 0v-5.566406c0-1.541587-2-1.574079-2 0zm1.003906 14.701171c5.38731 0 9.326573 5.085365 8.919925 9.789063l-8.919925 5.150391-8.921875-5.150391c-.226123-5.228998 4.894025-9.789063 8.921875-9.789063zm-29 .503907 17.761719 10.253906-11.2636721 19.515625h-2.4980469c-2.2333009 0-4-1.766677-4-4zm58 0v25.769531c0 2.233323-1.7667 4-4 4h-2.03125l-11.384766-19.712891zm-19.144531 11.052734 10.804687 18.716797h-40.859375l10.691407-18.515625 9.007812 5.201172c.309407.178612.690593.178612 1 0z" fill="#00003a" transform="matrix(.265 0 0 .265 0 280.067)" font-variant-ligatures="normal" font-variant-position="normal" font-variant-caps="normal" font-variant-numeric="normal" font-variant-alternates="normal" font-feature-settings="normal" text-indent="0" text-align="start" text-decoration-line="none" text-decoration-style="solid" text-decoration-color="#000000" text-transform="none" text-orientation="mixed" white-space="normal" shape-padding="0" isolation="auto" mix-blend-mode="normal" solid-color="#000000" solid-opacity="1" vector-effect="none"/></g></svg>